<svg width="42" height="42" viewBox="0 0 42 42" fill="none" xmlns="http://www.w3.org/2000/svg">
<rect width="42" height="42" rx="21" fill="#282B4E"/>
<rect x="0.5" y="0.5" width="41" height="41" rx="20.5" stroke="#C8C8D0" stroke-opacity="0.2"/>
<path d="M27.2422 15.7293H28.4889C28.3147 15.4818 28.1314 15.2526 27.9389 15.0234L27.2422 15.7293Z" fill="#7F66FF"/>
<path d="M26.9773 14.0517C26.7482 13.8592 26.519 13.6759 26.2715 13.5017V14.7484L26.9773 14.0517Z" fill="#7F66FF"/>
<path d="M27.9482 15.0234L30.6524 12.3192C30.9182 12.0534 30.9182 11.6134 30.6524 11.3476C30.3866 11.0817 29.9466 11.0817 29.6807 11.3476L26.9766 14.0517C27.3249 14.3542 27.6457 14.6842 27.9482 15.0234Z" fill="url(#paint0_linear_40_25091)"/>
<path d="M26.2701 12.75C26.2701 12.3742 25.9585 12.0625 25.5826 12.0625C25.216 12.0625 24.9226 12.3558 24.9043 12.7133C25.381 12.9425 25.8393 13.1992 26.2701 13.5017V12.75Z" fill="url(#paint1_linear_40_25091)"/>
<path d="M29.9366 16.4167C29.9366 16.0409 29.6249 15.7292 29.2491 15.7292H28.4883C28.7908 16.1601 29.0566 16.6184 29.2766 17.0951C29.6433 17.0767 29.9366 16.7834 29.9366 16.4167Z" fill="url(#paint2_linear_40_25091)"/>
<path d="M21.6875 23.5207H21.9625C22.32 23.5207 22.6042 23.1999 22.6042 22.8057C22.6042 22.3107 22.4667 22.2374 22.155 22.1274L21.6875 21.9624V23.5207Z" fill="#7F66FF"/>
<path d="M29.2873 17.0949C29.2782 17.0949 29.269 17.1041 29.2507 17.1041H25.584C25.4923 17.1041 25.4098 17.0858 25.3181 17.0491C25.1531 16.9758 25.0156 16.8474 24.9423 16.6733C24.9148 16.5908 24.8965 16.5083 24.8965 16.4166V12.7499C24.8965 12.7408 24.9057 12.7316 24.9057 12.7133C23.714 12.1541 22.394 11.8333 21.0007 11.8333C15.9407 11.8333 11.834 15.9399 11.834 20.9999C11.834 26.0599 15.9407 30.1666 21.0007 30.1666C26.0607 30.1666 30.1673 26.0599 30.1673 20.9999C30.1673 19.6066 29.8465 18.2866 29.2873 17.0949ZM22.6048 20.8349C23.1915 21.0366 23.9798 21.4674 23.9798 22.8149C23.9798 23.9608 23.0723 24.9049 21.9632 24.9049H21.6882V25.1341C21.6882 25.5099 21.3765 25.8216 21.0007 25.8216C20.6248 25.8216 20.3132 25.5099 20.3132 25.1341V24.9049H20.2398C19.0207 24.9049 18.0215 23.8783 18.0215 22.6133C18.0215 22.2283 18.3332 21.9166 18.709 21.9166C19.0848 21.9166 19.3965 22.2283 19.3965 22.6041C19.3965 23.1083 19.7723 23.5208 20.2398 23.5208H20.3132V21.4858L19.3965 21.1649C18.8098 20.9633 18.0215 20.5324 18.0215 19.1849C18.0215 18.0391 18.929 17.0949 20.0382 17.0949H20.3132V16.8749C20.3132 16.4991 20.6248 16.1874 21.0007 16.1874C21.3765 16.1874 21.6882 16.4991 21.6882 16.8749V17.1041H21.7615C22.9807 17.1041 23.9798 18.1308 23.9798 19.3958C23.9798 19.7716 23.6682 20.0833 23.2923 20.0833C22.9165 20.0833 22.6048 19.7716 22.6048 19.3958C22.6048 18.8916 22.229 18.4791 21.7615 18.4791H21.6882V20.5141L22.6048 20.8349Z" fill="#7F66FF"/>
<path d="M19.3965 19.1942C19.3965 19.6892 19.534 19.7626 19.8457 19.8726L20.3132 20.0376V18.4792H20.0382C19.6898 18.4792 19.3965 18.8001 19.3965 19.1942Z" fill="#7F66FF"/>
<defs>
<linearGradient id="paint0_linear_40_25091" x1="21" y1="27.4998" x2="32.5" y2="5.49976" gradientUnits="userSpaceOnUse">
<stop offset="0.509348" stop-color="#6271EB"/>
<stop offset="0.873821" stop-color="#6271EB" stop-opacity="0"/>
</linearGradient>
<linearGradient id="paint1_linear_40_25091" x1="22.7978" y1="18.1351" x2="27.194" y2="10.1537" gradientUnits="userSpaceOnUse">
<stop offset="0.509348" stop-color="#6271EB"/>
<stop offset="0.873821" stop-color="#6271EB" stop-opacity="0"/>
</linearGradient>
<linearGradient id="paint2_linear_40_25091" x1="26.2546" y1="21.4924" x2="30.1699" y2="13.5498" gradientUnits="userSpaceOnUse">
<stop offset="0.509348" stop-color="#6271EB"/>
<stop offset="0.873821" stop-color="#6271EB" stop-opacity="0"/>
</linearGradient>
</defs>
</svg>
