<svg width="42" height="42" viewBox="0 0 42 42" fill="none" xmlns="http://www.w3.org/2000/svg">
<rect width="42" height="42" rx="21" fill="#282B4E"/>
<rect x="0.5" y="0.5" width="41" height="41" rx="20.5" stroke="#C8C8D0" stroke-opacity="0.2"/>
<path d="M19.3965 19.1942C19.3965 19.6892 19.534 19.7626 19.8457 19.8726L20.3132 20.0376V18.4792H20.0382C19.6898 18.4792 19.3965 18.8001 19.3965 19.1942Z" fill="#7F66FF"/>
<path d="M21.6875 23.5207H21.9625C22.32 23.5207 22.6042 23.1999 22.6042 22.8057C22.6042 22.3107 22.4667 22.2374 22.155 22.1274L21.6875 21.9624V23.5207Z" fill="#7F66FF"/>
<path d="M27.949 15.0233L26.0698 16.9024C25.9323 17.0399 25.7582 17.1041 25.584 17.1041C25.4098 17.1041 25.2357 17.0399 25.0982 16.9024C24.8323 16.6366 24.8323 16.1966 25.0982 15.9308L26.9773 14.0516C25.364 12.6766 23.2832 11.8333 21.0007 11.8333C15.9407 11.8333 11.834 15.9399 11.834 20.9999C11.834 26.0599 15.9407 30.1666 21.0007 30.1666C26.0607 30.1666 30.1673 26.0599 30.1673 20.9999C30.1673 18.7174 29.324 16.6366 27.949 15.0233ZM22.6048 20.8349C23.1915 21.0458 23.9798 21.4674 23.9798 22.8149C23.9798 23.9608 23.0723 24.9049 21.9632 24.9049H21.6882V25.1341C21.6882 25.5099 21.3765 25.8216 21.0007 25.8216C20.6248 25.8216 20.3132 25.5099 20.3132 25.1341V24.9049H20.2398C19.0207 24.9049 18.0215 23.8783 18.0215 22.6133C18.0215 22.2283 18.3332 21.9166 18.709 21.9166C19.0848 21.9166 19.3965 22.2283 19.3965 22.6041C19.3965 23.1083 19.7723 23.5208 20.2398 23.5208H20.3132V21.4858L19.3965 21.1649C18.8098 20.9541 18.0215 20.5324 18.0215 19.1849C18.0215 18.0391 18.929 17.0949 20.0382 17.0949H20.3132V16.8749C20.3132 16.4991 20.6248 16.1874 21.0007 16.1874C21.3765 16.1874 21.6882 16.4991 21.6882 16.8749V17.1041H21.7615C22.9807 17.1041 23.9798 18.1308 23.9798 19.3958C23.9798 19.7716 23.6682 20.0833 23.2923 20.0833C22.9165 20.0833 22.6048 19.7716 22.6048 19.3958C22.6048 18.8916 22.229 18.4791 21.7615 18.4791H21.6882V20.5141L22.6048 20.8349Z" fill="#7F66FF"/>
<path d="M30.7992 11.5674C30.7258 11.4024 30.5975 11.2649 30.4233 11.1916C30.3408 11.1641 30.2583 11.1458 30.1667 11.1458H26.5C26.1242 11.1458 25.8125 11.4574 25.8125 11.8333C25.8125 12.2091 26.1242 12.5208 26.5 12.5208H28.5075L26.9767 14.0516C27.325 14.3541 27.6458 14.6749 27.9483 15.0233L29.4792 13.4924V15.4999C29.4792 15.8758 29.7908 16.1874 30.1667 16.1874C30.5425 16.1874 30.8542 15.8758 30.8542 15.4999V11.8333C30.8542 11.7416 30.8358 11.6591 30.7992 11.5674Z" fill="url(#paint0_linear_40_25073)"/>
<defs>
<linearGradient id="paint0_linear_40_25073" x1="37.5" y1="4.50024" x2="28.3333" y2="16.1874" gradientUnits="userSpaceOnUse">
<stop offset="0.707245" stop-color="#6271EB"/>
<stop offset="1" stop-color="#6271EB" stop-opacity="0"/>
</linearGradient>
</defs>
</svg>
