<svg width="61" height="50" viewBox="0 0 61 50" fill="none" xmlns="http://www.w3.org/2000/svg">
<path d="M12.2521 40.0355L12.2519 40.0354C3.94372 37.9645 -1.10652 29.5475 0.96447 21.2518L0.964513 21.2516C3.03547 12.9436 11.4403 7.89336 19.7487 9.96445L19.7492 9.96458C28.0444 12.0232 33.1073 20.4399 31.0362 28.7483L31.5214 28.8692L31.0362 28.7483C28.9653 37.0562 20.5479 42.1065 12.2521 40.0355Z" fill="#F89B2A" stroke="black"/>
<path d="M41.2521 40.0355L41.2519 40.0354C32.9437 37.9645 27.8935 29.5475 29.9645 21.2518L29.9645 21.2516C32.0355 12.9436 40.4403 7.89336 48.7487 9.96445L48.7492 9.96458C57.0444 12.0232 62.1073 20.4399 60.0362 28.7483L60.5214 28.8692L60.0362 28.7483C57.9653 37.0562 49.5479 42.1065 41.2521 40.0355Z" fill="#F89B2A" stroke="black"/>
<path d="M43.8889 31.9999V30.6179C40.8536 30.4441 39.0095 28.8906 39 26.5357H41.75C41.8176 27.5352 42.6613 28.2983 43.8889 28.433V24.7142L42.8664 24.4486C40.5366 23.9105 39.2899 22.5744 39.2899 20.575C39.2899 18.2182 40.9892 16.6726 43.8889 16.4419V14.9999H45.1111V16.4419C48.067 16.681 49.6562 18.2535 49.6944 20.4642H46.9444C46.9154 19.5512 46.3398 18.8177 45.1111 18.7187V22.2098L46.2883 22.486C48.7629 23.0241 50 24.2968 50 26.3839C50 28.8253 48.3294 30.4016 45.1111 30.6081V31.9999H43.8889ZM43.8889 21.9821V18.7187C42.8351 18.7764 42.0834 19.4196 42.0834 20.3326C42.0834 21.1788 42.7094 21.732 43.8889 21.9821ZM45.1111 24.9419V28.433C46.5682 28.3745 47.2645 27.715 47.2645 26.6962C47.2645 25.7634 46.5682 25.1354 45.1111 24.9419Z" fill="white"/>
<path d="M20.9696 22.4256C21.2145 20.7476 19.9509 19.8395 18.2074 19.2374L18.7755 16.9574L17.4042 16.6119L16.8557 18.8328C16.4933 18.7439 16.121 18.6551 15.7488 18.5761L16.2973 16.3454L14.926 15.9999L14.3677 18.2701C14.0641 18.201 13.7702 18.132 13.4862 18.0629V18.053L11.5859 17.5792L11.2235 19.0598C11.2235 19.0598 12.2422 19.2967 12.2226 19.3065C12.7809 19.4447 12.8789 19.8198 12.8593 20.1159L12.2128 22.7118C12.252 22.7217 12.3009 22.7316 12.3597 22.7612C12.3107 22.7513 12.2618 22.7415 12.2128 22.7217L11.3116 26.354C11.2431 26.5218 11.0668 26.7785 10.6848 26.6798C10.6946 26.6995 9.68566 26.433 9.68566 26.433L9 28.0221L10.7925 28.4762C11.1255 28.565 11.4488 28.644 11.772 28.7328L11.2039 31.0326L12.5752 31.3781L13.1433 29.098C13.5155 29.1967 13.8878 29.2954 14.2404 29.3843L13.6821 31.6545L15.0534 31.9999L15.6215 29.7001C17.9723 30.1443 19.7354 29.9666 20.4701 27.8247C21.0676 26.1073 20.4407 25.1104 19.2065 24.4589C20.1174 24.2516 20.7933 23.6495 20.9696 22.4256ZM17.8254 26.8673C17.4042 28.5848 14.5244 27.6569 13.5939 27.42L14.3481 24.3701C15.2787 24.607 18.276 25.0709 17.8254 26.8673ZM18.2564 22.396C17.8646 23.9654 15.4746 23.1659 14.7007 22.9685L15.3864 20.2048C16.1602 20.4022 18.658 20.7674 18.2564 22.396Z" fill="white"/>
<path d="M12.2521 40.0355L12.2519 40.0354C3.94372 37.9645 -1.10652 29.5475 0.96447 21.2518L0.964513 21.2516C3.03547 12.9436 11.4403 7.89336 19.7487 9.96445L19.7492 9.96458C28.0444 12.0232 33.1073 20.4399 31.0362 28.7483L31.5214 28.8692L31.0362 28.7483C28.9653 37.0562 20.5479 42.1065 12.2521 40.0355Z" fill="#F89B2A" stroke="black"/>
<path d="M41.2521 40.0355L41.2519 40.0354C32.9437 37.9645 27.8935 29.5475 29.9645 21.2518L29.9645 21.2516C32.0355 12.9436 40.4403 7.89336 48.7487 9.96445L48.7492 9.96458C57.0444 12.0232 62.1073 20.4399 60.0362 28.7483L60.5214 28.8692L60.0362 28.7483C57.9653 37.0562 49.5479 42.1065 41.2521 40.0355Z" fill="#F89B2A" stroke="black"/>
<path d="M43.8889 31.9999V30.6179C40.8536 30.4441 39.0095 28.8906 39 26.5357H41.75C41.8176 27.5352 42.6613 28.2983 43.8889 28.433V24.7142L42.8664 24.4486C40.5366 23.9105 39.2899 22.5744 39.2899 20.575C39.2899 18.2182 40.9892 16.6726 43.8889 16.4419V14.9999H45.1111V16.4419C48.067 16.681 49.6562 18.2535 49.6944 20.4642H46.9444C46.9154 19.5512 46.3398 18.8177 45.1111 18.7187V22.2098L46.2883 22.486C48.7629 23.0241 50 24.2968 50 26.3839C50 28.8253 48.3294 30.4016 45.1111 30.6081V31.9999H43.8889ZM43.8889 21.9821V18.7187C42.8351 18.7764 42.0834 19.4196 42.0834 20.3326C42.0834 21.1788 42.7094 21.732 43.8889 21.9821ZM45.1111 24.9419V28.433C46.5682 28.3745 47.2645 27.715 47.2645 26.6962C47.2645 25.7634 46.5682 25.1354 45.1111 24.9419Z" fill="white"/>
<path d="M20.9696 22.4256C21.2145 20.7476 19.9509 19.8395 18.2074 19.2374L18.7755 16.9574L17.4042 16.6119L16.8557 18.8328C16.4933 18.7439 16.121 18.6551 15.7488 18.5761L16.2973 16.3454L14.926 15.9999L14.3677 18.2701C14.0641 18.201 13.7702 18.132 13.4862 18.0629V18.053L11.5859 17.5792L11.2235 19.0598C11.2235 19.0598 12.2422 19.2967 12.2226 19.3065C12.7809 19.4447 12.8789 19.8198 12.8593 20.1159L12.2128 22.7118C12.252 22.7217 12.3009 22.7316 12.3597 22.7612C12.3107 22.7513 12.2618 22.7415 12.2128 22.7217L11.3116 26.354C11.2431 26.5218 11.0668 26.7785 10.6848 26.6798C10.6946 26.6995 9.68566 26.433 9.68566 26.433L9 28.0221L10.7925 28.4762C11.1255 28.565 11.4488 28.644 11.772 28.7328L11.2039 31.0326L12.5752 31.3781L13.1433 29.098C13.5155 29.1967 13.8878 29.2954 14.2404 29.3843L13.6821 31.6545L15.0534 31.9999L15.6215 29.7001C17.9723 30.1443 19.7354 29.9666 20.4701 27.8247C21.0676 26.1073 20.4407 25.1104 19.2065 24.4589C20.1174 24.2516 20.7933 23.6495 20.9696 22.4256ZM17.8254 26.8673C17.4042 28.5848 14.5244 27.6569 13.5939 27.42L14.3481 24.3701C15.2787 24.607 18.276 25.0709 17.8254 26.8673ZM18.2564 22.396C17.8646 23.9654 15.4746 23.1659 14.7007 22.9685L15.3864 20.2048C16.1602 20.4022 18.658 20.7674 18.2564 22.396Z" fill="white"/>
<path d="M40 1.6074L40 6.59939M40 6.59939L35.008 6.59939M40 6.59939L36.82 3.41639C35.7959 2.39227 34.5202 1.65579 33.1212 1.281C31.7222 0.90621 30.2492 0.906319 28.8503 1.28131C27.4513 1.65631 26.1758 2.39298 25.1518 3.41726C24.1278 4.44154 23.3916 5.71734 23.017 7.11639" stroke="black" stroke-width="1.5" stroke-linecap="round" stroke-linejoin="round"/>
<path d="M40 1.6074L40 6.59939M40 6.59939L35.008 6.59939M40 6.59939L36.82 3.41639C35.7959 2.39227 34.5202 1.65579 33.1212 1.281C31.7222 0.90621 30.2492 0.906319 28.8503 1.28131C27.4513 1.65631 26.1758 2.39298 25.1518 3.41726C24.1278 4.44154 23.3916 5.71734 23.017 7.11639" stroke="black" stroke-width="1.5" stroke-linecap="round" stroke-linejoin="round"/>
<path d="M23 48.5089V43.5169M23 43.5169H27.992M23 43.5169L26.18 46.6999C27.2041 47.7241 28.4798 48.4605 29.8788 48.8353C31.2778 49.2101 32.7508 49.21 34.1497 48.835C35.5487 48.46 36.8242 47.7234 37.8482 46.6991C38.8722 45.6748 39.6084 44.399 39.983 42.9999" stroke="black" stroke-width="1.5" stroke-linecap="round" stroke-linejoin="round"/>
<path d="M23 48.5089V43.5169M23 43.5169H27.992M23 43.5169L26.18 46.6999C27.2041 47.7241 28.4798 48.4605 29.8788 48.8353C31.2778 49.2101 32.7508 49.21 34.1497 48.835C35.5487 48.46 36.8242 47.7234 37.8482 46.6991C38.8722 45.6748 39.6084 44.399 39.983 42.9999" stroke="black" stroke-width="1.5" stroke-linecap="round" stroke-linejoin="round"/>
</svg>
