<svg width="42" height="42" viewBox="0 0 42 42" fill="none" xmlns="http://www.w3.org/2000/svg">
<rect width="42" height="42" rx="21" fill="#282B4E"/>
<rect x="0.5" y="0.5" width="41" height="41" rx="20.5" stroke="#C8C8D0" stroke-opacity="0.2"/>
<path d="M28.3058 18.0209H25.6108C24.4467 18.0209 23.75 17.3242 23.75 16.1601V13.4651C23.75 12.3009 24.4467 11.6042 25.6108 11.6042H28.3058C29.47 11.6042 30.1667 12.3009 30.1667 13.4651V16.1601C30.1667 17.3242 29.47 18.0209 28.3058 18.0209ZM28.5075 14.9867C28.3975 14.8767 28.2508 14.8217 28.1042 14.8217C27.9575 14.8217 27.8108 14.8767 27.7008 14.9867L27.5358 15.1517V13.0984C27.5358 12.7776 27.2792 12.5209 26.9583 12.5209C26.6375 12.5209 26.3808 12.7776 26.3808 13.0984V15.1517L26.2158 14.9867C25.9958 14.7667 25.6292 14.7667 25.4092 14.9867C25.1892 15.2067 25.1892 15.5734 25.4092 15.7934L26.555 16.9392C26.6008 16.9851 26.665 17.0217 26.7292 17.0492C26.7475 17.0584 26.7658 17.0584 26.7842 17.0676C26.83 17.0859 26.8758 17.0951 26.9308 17.0951C26.9492 17.0951 26.9675 17.0951 26.9858 17.0951C27.05 17.0951 27.105 17.0859 27.1692 17.0584C27.1783 17.0584 27.1783 17.0584 27.1875 17.0584C27.2517 17.0309 27.3067 16.9942 27.3525 16.9484C27.3617 16.9392 27.3617 16.9392 27.3708 16.9392L28.5167 15.7934C28.7367 15.5734 28.7367 15.2067 28.5075 14.9867Z" fill="url(#paint0_linear_40_25109)"/>
<path d="M11.834 20.5049V25.0883C11.834 27.1874 13.5298 28.8833 15.629 28.8833H26.3632C28.4623 28.8833 30.1673 27.1783 30.1673 25.0791V20.5049C30.1673 19.8908 29.6723 19.3958 29.0582 19.3958H12.9432C12.329 19.3958 11.834 19.8908 11.834 20.5049ZM17.334 25.8124H15.5007C15.1248 25.8124 14.8132 25.5008 14.8132 25.1249C14.8132 24.7491 15.1248 24.4374 15.5007 24.4374H17.334C17.7098 24.4374 18.0215 24.7491 18.0215 25.1249C18.0215 25.5008 17.7098 25.8124 17.334 25.8124ZM23.2923 25.8124H19.6257C19.2498 25.8124 18.9382 25.5008 18.9382 25.1249C18.9382 24.7491 19.2498 24.4374 19.6257 24.4374H23.2923C23.6682 24.4374 23.9798 24.7491 23.9798 25.1249C23.9798 25.5008 23.6682 25.8124 23.2923 25.8124Z" fill="#7F66FF"/>
<path d="M22.3757 14.2259V16.9117C22.3757 17.5259 21.8807 18.0209 21.2665 18.0209H12.9432C12.3198 18.0209 11.834 17.5075 11.834 16.8934C11.8432 15.8575 12.2557 14.9134 12.9432 14.2259C13.6307 13.5384 14.584 13.1167 15.629 13.1167H21.2665C21.8807 13.1167 22.3757 13.6117 22.3757 14.2259Z" fill="#7F66FF"/>
<defs>
<linearGradient id="paint0_linear_40_25109" x1="22.5469" y1="19.224" x2="38.1875" y2="7.19279" gradientUnits="userSpaceOnUse">
<stop offset="0.253839" stop-color="#6271EB"/>
<stop offset="0.633116" stop-color="#6271EB" stop-opacity="0"/>
</linearGradient>
</defs>
</svg>
