<svg width="48" height="48" viewBox="0 0 48 48" fill="none" xmlns="http://www.w3.org/2000/svg">
    <g clip-path="url(#clip0_1_1528)">
        <path
            d="M24 48C37.2548 48 48 37.2548 48 24C48 10.7452 37.2548 0 24 0C10.7452 0 0 10.7452 0 24C0 37.2548 10.7452 48 24 48Z"
            fill="#102044" />
    </g>
    <path
        d="M33 28.3597C33 30.1339 32.3128 31.5621 30.9383 32.6443C29.5637 33.7154 28.2032 34.3569 25.7291 34.569V38H22.1457V34.6361C19.2294 34.5803 17.2353 34.1003 15.0361 33.1968V28.7783C16.0758 29.258 17.325 29.6821 18.783 30.0502C20.2531 30.4183 20.998 30.6359 22.1454 30.703V25.5146L21.5079 25.0794C19.1415 24.209 17.4622 23.2663 16.4701 22.2509C15.4901 21.2245 15 19.9581 15 18.4518C15 16.8339 15.6753 15.5062 17.0259 14.4685C18.3884 13.4197 19.7193 12.7838 22.1454 12.5606V10H25.7289V12.4938C28.4659 12.6054 30.3763 13.1187 32.5874 14.0336L30.9022 17.9498C29.0378 17.2357 27.6891 16.8005 25.7289 16.6444V21.5818C28.0595 22.4185 29.1511 23.144 30.1313 23.7575C31.1234 24.3711 31.8464 25.0463 32.3007 25.7827C32.7666 26.5189 33 27.378 33 28.3597M27.6034 28.611C27.6034 28.1424 27.4002 27.7464 26.9938 27.4227C26.5874 27.0991 26.5414 26.7644 25.7289 26.4184V30.5859C27.3543 30.3291 27.6034 29.6708 27.6034 28.611ZM20.3966 18.4518C20.3966 18.9428 20.5758 19.3501 20.9343 19.6734C21.305 19.9858 21.3329 20.3094 22.1454 20.6441V16.7113C20.6034 16.9234 20.3966 17.5035 20.3966 18.4518Z"
        fill="white" />
    <defs>
        <clipPath id="clip0_1_1528">
            <rect width="48" height="48" fill="white" />
        </clipPath>
    </defs>
</svg>