<svg width="40" height="40" viewBox="0 0 40 40" fill="none" xmlns="http://www.w3.org/2000/svg">
<g clip-path="url(#clip0_150_2520)">
<circle cx="20" cy="20" r="20" fill="#0E0637"/>
<path d="M28.2485 8.33337H31.6209L24.6027 16.7246C22.0611 19.7618 17.9404 19.7618 15.3969 16.7246L8.37598 8.33337H11.7511L17.0831 14.7077C17.86 15.6323 18.907 16.1506 19.9978 16.1506C21.0885 16.1506 22.1355 15.6323 22.9124 14.7077L28.2485 8.33337Z" fill="white"/>
<path d="M11.7077 31.6668H8.33301L15.3968 23.2238C17.9384 20.1866 22.0591 20.1866 24.6025 23.2238L31.6663 31.6668H28.2939L22.9163 25.2407C22.1395 24.3161 21.0925 23.7978 20.0017 23.7978C18.911 23.7978 17.864 24.3161 17.0871 25.2407L11.7077 31.6668Z" fill="white"/>
</g>
<defs>
<clipPath id="clip0_150_2520">
<rect width="40" height="40" fill="white"/>
</clipPath>
</defs>
</svg>
