<svg width="40" height="40" viewBox="0 0 40 40" fill="none" xmlns="http://www.w3.org/2000/svg">
<g clip-path="url(#clip0_1_1577)">
<circle cx="20" cy="20" r="20" fill="#5235E8"/>
<path d="M20.4438 5.0426V5.0568C20.458 5.1278 20.458 5.213 20.458 5.29819V15.5362C20.4438 15.593 20.4012 15.6072 20.3586 15.6356C20.0605 15.7776 19.7765 15.9054 19.4783 16.0332C19.0665 16.2178 18.6405 16.4166 18.2287 16.6012L16.7377 17.2828C16.3259 17.4674 15.9141 17.652 15.5165 17.8365C15.0338 18.0637 14.5368 18.2767 14.054 18.5039C13.6422 18.6885 13.2304 18.8873 12.8044 19.0719C12.4636 19.2281 12.1228 19.3701 11.7962 19.5263C11.7678 19.5405 11.7394 19.5547 11.711 19.5547C11.6968 19.5547 11.6968 19.5547 11.6826 19.5405L12.066 18.9015C12.8044 17.6804 13.5286 16.4734 14.267 15.2522C15.048 13.9458 15.8431 12.6395 16.6241 11.3331C17.3483 10.1261 18.0867 8.91912 18.8109 7.71215C19.3363 6.83176 19.8759 5.95138 20.4012 5.071C20.4154 5.0426 20.4296 5.0284 20.4296 5H20.4438C20.4296 5.0142 20.4438 5.0284 20.4438 5.0426Z" fill="#F3F3F3"/>
<path d="M29.1611 19.5406L29.1753 19.5548L27.0879 20.7902L20.5277 24.6667C20.4993 24.6809 20.4709 24.6951 20.4567 24.7093C20.4141 24.7093 20.4141 24.6667 20.4141 24.6525V24.5247V15.7493C20.4141 15.7067 20.4141 15.6499 20.4283 15.6073C20.4425 15.5505 20.4851 15.5647 20.5277 15.5789C20.7123 15.6641 20.9111 15.7493 21.0956 15.8345C21.6494 16.0901 22.2032 16.3456 22.757 16.587C23.2398 16.8 23.7084 17.0272 24.1912 17.2402C24.674 17.4532 25.1568 17.6804 25.6396 17.8934C26.0514 18.078 26.4773 18.2768 26.8891 18.4614C27.3009 18.646 27.7269 18.8448 28.1387 19.0294C28.4653 19.1714 28.7919 19.3276 29.1185 19.4696C29.1185 19.5122 29.1327 19.5264 29.1611 19.5406Z" fill="#8A8DA7"/>
<path d="M20.4429 33.5273C20.4429 33.5415 20.4287 33.5557 20.4287 33.5699H20.4145C20.4145 33.5415 20.3861 33.5273 20.3719 33.4989C19.4915 32.2635 18.6111 31.0139 17.7307 29.7785C16.8361 28.5148 15.9274 27.2368 15.0328 25.973C14.1666 24.7518 13.2862 23.5165 12.42 22.2953C12.1928 21.9687 11.9656 21.6563 11.7384 21.3297C11.7242 21.3013 11.71 21.2871 11.6816 21.2445C11.7242 21.2445 11.7526 21.2729 11.7668 21.2871C13.0022 22.0113 14.2234 22.7355 15.4588 23.4597C16.8787 24.2974 18.2845 25.1352 19.7045 25.973L20.4287 26.399C20.4571 26.4274 20.4571 26.4558 20.4571 26.4842V33.3285C20.4571 33.3995 20.4571 33.4705 20.4429 33.5273Z" fill="#F3F3F3"/>
<path d="M11.667 19.5689V19.5547C12.1214 19.3559 12.5616 19.1429 13.016 18.9441C13.5982 18.6743 14.1803 18.4187 14.7625 18.1489C15.2027 17.9501 15.6571 17.7371 16.0973 17.5383C16.7505 17.2401 17.3895 16.9561 18.0427 16.658C18.4829 16.4592 18.923 16.2604 19.3774 16.0474C19.6898 15.9054 20.0164 15.7634 20.3288 15.6214C20.3572 15.6072 20.3998 15.593 20.414 15.5646C20.4282 15.5646 20.4282 15.5788 20.414 15.593V24.6098C20.414 24.6524 20.3998 24.695 20.4282 24.7234C20.3998 24.766 20.3714 24.7234 20.3572 24.7092C20.2294 24.6382 20.1016 24.5672 19.9738 24.482C17.2333 22.8632 14.4785 21.2303 11.738 19.6115C11.7238 19.5973 11.6954 19.5831 11.667 19.5689Z" fill="#C5C8D9"/>
<path d="M29.1331 21.2445H29.1473C29.1473 21.2729 29.1189 21.3013 29.1047 21.3297C26.492 25.0074 23.8792 28.6994 21.2665 32.3771C20.9967 32.7605 20.7127 33.1439 20.4429 33.5273C20.4287 33.5131 20.4287 33.4989 20.4287 33.4847V33.3995V26.5126V26.3848C21.0251 26.0298 21.6073 25.689 22.2037 25.334C24.504 23.9709 26.8044 22.6219 29.0905 21.2587C29.1047 21.2729 29.1189 21.2587 29.1331 21.2445Z" fill="#C5C8D9"/>
<path d="M20.4288 15.593V15.5646V15.4794V5.17036C20.4288 5.12776 20.4146 5.09936 20.443 5.05676C23.3255 9.84207 26.2081 14.6132 29.0764 19.3985C29.1048 19.4411 29.1474 19.4979 29.1616 19.5547C28.9628 19.4837 28.7782 19.3843 28.5936 19.2991C28.3664 19.1997 28.125 19.0861 27.8978 18.9867C27.7558 18.9157 27.5997 18.8589 27.4577 18.7879C27.2163 18.6743 26.9749 18.5749 26.7335 18.4613C26.5915 18.4045 26.4495 18.3335 26.3075 18.2625L25.3703 17.8365C25.2141 17.7655 25.0579 17.6945 24.8875 17.6235L24.2059 17.3253C24.0639 17.2685 23.9219 17.1975 23.7799 17.1265L22.8427 16.7005C22.6865 16.6295 22.5303 16.5585 22.36 16.4875L21.6784 16.1893C21.5222 16.1183 21.3802 16.0474 21.224 15.9764C20.9542 15.8486 20.6844 15.7208 20.4004 15.6072C20.443 15.593 20.4288 15.593 20.4288 15.593Z" fill="#C5C8D9"/>
</g>
<defs>
<clipPath id="clip0_1_1577">
<rect width="40" height="40" fill="white"/>
</clipPath>
</defs>
</svg>
