<svg width="16" height="16" viewBox="0 0 16 16" fill="none" xmlns="http://www.w3.org/2000/svg">
<path d="M4.60008 6.06662L7.78005 4.65329C7.92005 4.59329 8.08007 4.59329 8.2134 4.65329L11.3934 6.06662C11.6734 6.19329 11.9334 5.85329 11.7401 5.61329L8.40672 1.53996C8.18005 1.25996 7.80673 1.25996 7.58006 1.53996L4.24673 5.61329C4.06006 5.85329 4.32008 6.19329 4.60008 6.06662Z" fill="#6271EB"/>
<path d="M4.60004 9.9333L7.78669 11.3466C7.92669 11.4066 8.08671 11.4066 8.22004 11.3466L11.4067 9.9333C11.6867 9.80663 11.9467 10.1466 11.7534 10.3866L8.42003 14.46C8.19337 14.74 7.82004 14.74 7.59337 14.46L4.26004 10.3866C4.06004 10.1466 4.31338 9.80663 4.60004 9.9333Z" fill="#6271EB"/>
<path d="M7.85338 6.32663L5.10004 7.69996C4.85337 7.81996 4.85337 8.17329 5.10004 8.29329L7.85338 9.66663C7.94671 9.71329 8.06001 9.71329 8.15334 9.66663L10.9067 8.29329C11.1533 8.17329 11.1533 7.81996 10.9067 7.69996L8.15334 6.32663C8.05334 6.27996 7.94671 6.27996 7.85338 6.32663Z" fill="#6271EB"/>
</svg>
