<svg width="20" height="21" viewBox="0 0 20 21" fill="none" xmlns="http://www.w3.org/2000/svg">
    <path
        d="M15.033 11.7916C14.683 12.1332 14.483 12.6249 14.533 13.1499C14.608 14.0499 15.433 14.7082 16.333 14.7082H17.9163V15.6999C17.9163 17.4249 16.508 18.8333 14.783 18.8333H5.21634C3.49134 18.8333 2.08301 17.4249 2.08301 15.6999V10.0916C2.08301 8.36659 3.49134 6.95825 5.21634 6.95825H14.783C16.508 6.95825 17.9163 8.36659 17.9163 10.0916V11.2916H16.233C15.7663 11.2916 15.3413 11.4749 15.033 11.7916Z"
        stroke="#131316" stroke-width="1.5" stroke-linecap="round" stroke-linejoin="round" />
    <path
        d="M2.08301 10.8416V7.0333C2.08301 6.04163 2.69134 5.15826 3.61634 4.80826L10.233 2.30826C11.2663 1.91659 12.3747 2.68329 12.3747 3.79162V6.95828"
        stroke="#131316" stroke-width="1.5" stroke-linecap="round" stroke-linejoin="round" />
    <path
        d="M18.7987 12.1417V13.8584C18.7987 14.3168 18.432 14.6917 17.9654 14.7084H16.332C15.432 14.7084 14.607 14.0501 14.532 13.1501C14.482 12.6251 14.682 12.1334 15.032 11.7917C15.3404 11.4751 15.7654 11.2917 16.232 11.2917H17.9654C18.432 11.3084 18.7987 11.6834 18.7987 12.1417Z"
        stroke="#131316" stroke-width="1.5" stroke-linecap="round" stroke-linejoin="round" />
    <path d="M5.83301 10.5H11.6663" stroke="#131316" stroke-width="1.5" stroke-linecap="round"
        stroke-linejoin="round" />
</svg>