<svg width="20" height="21" viewBox="0 0 20 21" fill="none" xmlns="http://www.w3.org/2000/svg">
<path d="M15.032 11.7921C14.682 12.1337 14.482 12.6254 14.532 13.1504C14.607 14.0504 15.432 14.7087 16.332 14.7087H17.9154V15.7004C17.9154 17.4254 16.507 18.8337 14.782 18.8337H5.21536C3.49036 18.8337 2.08203 17.4254 2.08203 15.7004V10.0921C2.08203 8.36708 3.49036 6.95874 5.21536 6.95874H14.782C16.507 6.95874 17.9154 8.36708 17.9154 10.0921V11.2921H16.232C15.7654 11.2921 15.3404 11.4754 15.032 11.7921Z" stroke="white" stroke-width="1.5" stroke-linecap="round" stroke-linejoin="round"/>
<path d="M2.08203 10.8421V7.03379C2.08203 6.04212 2.69036 5.15875 3.61536 4.80875L10.232 2.30875C11.2654 1.91708 12.3737 2.68377 12.3737 3.79211V6.95876" stroke="white" stroke-width="1.5" stroke-linecap="round" stroke-linejoin="round"/>
<path d="M18.7977 12.142V13.8587C18.7977 14.317 18.431 14.692 17.9644 14.7086H16.331C15.431 14.7086 14.606 14.0503 14.531 13.1503C14.481 12.6253 14.681 12.1336 15.031 11.792C15.3394 11.4753 15.7644 11.292 16.231 11.292H17.9644C18.431 11.3087 18.7977 11.6836 18.7977 12.142Z" stroke="white" stroke-width="1.5" stroke-linecap="round" stroke-linejoin="round"/>
<path d="M5.83203 10.5H11.6654" stroke="white" stroke-width="1.5" stroke-linecap="round" stroke-linejoin="round"/>
</svg>
