<svg width="20" height="17" viewBox="0 0 20 17" fill="none" xmlns="http://www.w3.org/2000/svg">
<g clip-path="url(#clip0_2133_1377)">
<path d="M16.1905 2.13855C17.4286 2.13855 18.381 3.10241 18.381 4.35542V12.6446C18.381 13.8976 17.4286 14.8614 16.1905 14.8614H3.80952C2.57143 14.8614 1.61905 13.8976 1.61905 12.6446V4.35542C1.61905 3.10241 2.57143 2.13855 3.80952 2.13855H16.1905ZM16.1905 0.5H3.80952C1.71429 0.5 0 2.23494 0 4.35542V12.6446C0 14.7651 1.71429 16.5 3.80952 16.5H16.1905C18.2857 16.5 20 14.7651 20 12.6446V4.35542C20 2.23494 18.2857 0.5 16.1905 0.5Z" fill="#B3B3B3"/>
<path d="M18.9527 6.86133H16.286C15.4289 6.86133 14.667 7.53603 14.667 8.49988C14.667 9.36735 15.3337 10.1384 16.286 10.1384H18.9527" stroke="#B3B3B3" stroke-width="1.9028" stroke-linecap="round" stroke-linejoin="round"/>
</g>
<defs>
<clipPath id="clip0_2133_1377">
<rect width="20" height="16" fill="white" transform="translate(0 0.5)"/>
</clipPath>
</defs>
</svg>
