<svg width="24" height="25" viewBox="0 0 24 25" fill="none" xmlns="http://www.w3.org/2000/svg">
<path fill-rule="evenodd" clip-rule="evenodd" d="M14.27 2.5C15.0792 2.49888 15.7474 3.13193 15.79 3.94C18.1649 4.20703 19.9696 6.20031 20 8.59V18.68C19.9945 21.3011 17.8711 23.4245 15.25 23.43H8.75C6.12893 23.4245 4.0055 21.3011 4 18.68V8.59C4.03041 6.20031 5.83508 4.20703 8.21 3.94C8.25747 3.13419 8.9228 2.50388 9.73 2.5H14.27ZM14.29 3.94H9.73V5.13H14.29V3.94ZM18.5 18.68C18.5 20.4766 17.0465 21.9345 15.25 21.94H8.75C6.95345 21.9345 5.49999 20.4766 5.5 18.68V8.59C5.50398 6.99887 6.65936 5.64458 8.23 5.39C8.35276 6.12136 8.98843 6.65532 9.73 6.65H14.27C15.0116 6.65532 15.6472 6.12136 15.77 5.39C17.3406 5.64458 18.496 6.99887 18.5 8.59V18.68ZM12.05 11.46H8.93C8.51579 11.46 8.18 11.1242 8.18 10.71C8.18 10.2958 8.51579 9.96 8.93 9.96H12.05C12.4642 9.96 12.8 10.2958 12.8 10.71C12.8 11.1242 12.4642 11.46 12.05 11.46ZM8.93 13.07H15.07C15.4842 13.07 15.82 13.4058 15.82 13.82C15.82 14.2342 15.4842 14.57 15.07 14.57H8.93C8.51579 14.57 8.18 14.2342 8.18 13.82C8.18 13.4058 8.51579 13.07 8.93 13.07ZM14.23 16H8.93C8.51579 16 8.18 16.3358 8.18 16.75C8.18 17.1642 8.51579 17.5 8.93 17.5H14.23C14.6442 17.5 14.98 17.1642 14.98 16.75C14.98 16.3358 14.6442 16 14.23 16Z" fill="#7F66FF"/>
</svg>
