<svg width="20" height="20" viewBox="0 0 20 20" fill="none" xmlns="http://www.w3.org/2000/svg">
<path d="M7.22656 11.9415C7.22656 13.0165 8.05156 13.8831 9.07656 13.8831H11.1682C12.0599 13.8831 12.7849 13.1248 12.7849 12.1915C12.7849 11.1748 12.3432 10.8165 11.6849 10.5831L8.32656 9.41645C7.66823 9.18312 7.22656 8.82479 7.22656 7.80812C7.22656 6.87479 7.95156 6.11646 8.84323 6.11646H10.9349C11.9599 6.11646 12.7849 6.98312 12.7849 8.05812" stroke="#9C9CAB" stroke-width="1.5" stroke-linecap="round" stroke-linejoin="round"/>
<path d="M10 5V15" stroke="#9C9CAB" stroke-width="1.5" stroke-linecap="round" stroke-linejoin="round"/>
<path d="M12.5003 18.3334H7.50033C3.33366 18.3334 1.66699 16.6667 1.66699 12.5001V7.50008C1.66699 3.33341 3.33366 1.66675 7.50033 1.66675H12.5003C16.667 1.66675 18.3337 3.33341 18.3337 7.50008V12.5001C18.3337 16.6667 16.667 18.3334 12.5003 18.3334Z" stroke="#9C9CAB" stroke-width="1.5" stroke-linecap="round" stroke-linejoin="round"/>
</svg>
