<svg width="35" height="34" viewBox="0 0 35 34" fill="none" xmlns="http://www.w3.org/2000/svg">
<path fill-rule="evenodd" clip-rule="evenodd" d="M27.5161 10.2002C29.5504 10.2002 31.1995 8.55108 31.1995 6.51683C31.1995 4.48258 29.5504 2.8335 27.5161 2.8335C25.4819 2.8335 23.8328 4.48258 23.8328 6.51683C23.829 7.49487 24.2159 8.43393 24.9074 9.12552C25.599 9.8171 26.5381 10.2039 27.5161 10.2002ZM27.5162 4.97282C28.1478 4.97285 28.7169 5.35408 28.9572 5.93813C29.1976 6.52218 29.0616 7.19354 28.613 7.63808C28.1644 8.08263 27.4918 8.21243 26.91 7.96676C26.3282 7.72109 25.9521 7.14853 25.9579 6.51699C25.9579 6.10498 26.1225 5.71006 26.4152 5.42006C26.7078 5.13006 27.1042 4.96904 27.5162 4.97282ZM29.7406 11.3052C29.1538 11.3052 28.6781 11.7809 28.6781 12.3677V23.7011C28.6704 26.4675 26.4296 28.7083 23.6631 28.7161H10.4173C7.65084 28.7083 5.4101 26.4675 5.40232 23.7011V10.3986C5.4101 7.63209 7.65084 5.39135 10.4173 5.38357H21.6373C22.2241 5.38357 22.6998 4.90787 22.6998 4.32107C22.6998 3.73426 22.2241 3.25857 21.6373 3.25857H10.4173C6.5053 3.25857 3.33398 6.42988 3.33398 10.3419V23.5877C3.33398 25.4663 4.08026 27.268 5.40864 28.5964C6.73703 29.9248 8.5387 30.6711 10.4173 30.6711H23.6631C27.5752 30.6711 30.7465 27.4997 30.7465 23.5877V12.2544C30.6856 11.736 30.2617 11.336 29.7406 11.3052ZM12.8255 10.526C14.6858 9.15924 17.0914 8.77414 19.2855 9.49185C21.2297 10.153 22.814 11.5887 23.663 13.4585C24.4094 15.0175 24.6567 16.7688 24.3713 18.4735C24.169 19.7695 23.245 20.8365 21.9913 21.2218C20.9223 21.5376 19.7661 21.2925 18.9171 20.5702C18.316 20.939 17.6249 21.135 16.9196 21.1368C16.5751 21.1311 16.2326 21.0836 15.8996 20.9952C13.7643 20.3052 12.5871 18.0203 13.2646 15.881C13.7611 14.105 15.3462 12.8518 17.1888 12.7785C17.5338 12.7768 17.8773 12.8245 18.2088 12.9202C20.3438 13.6098 21.5167 15.8985 20.8296 18.0344C20.726 18.3799 20.5834 18.7126 20.4046 19.026C20.7041 19.2164 21.0729 19.2631 21.4105 19.1535C21.8894 19.0033 22.2377 18.5887 22.303 18.091C22.5136 16.8201 22.3307 15.5151 21.7788 14.351C21.1715 13.0146 20.0382 11.989 18.648 11.5177C17.0964 10.9949 15.3872 11.2648 14.0721 12.2402C12.5641 13.3683 11.6809 15.1452 11.6921 17.0285C11.5882 20.0827 13.9656 22.6498 17.0188 22.7802C17.3006 22.7839 17.5694 22.8995 17.766 23.1014C17.9626 23.3033 18.0709 23.575 18.0671 23.8568C18.0671 24.1374 17.9548 24.4062 17.7551 24.6032C17.5554 24.8002 17.2851 24.909 17.0046 24.9052C12.787 24.7589 9.47149 21.2476 9.56712 17.0285C9.55351 14.4653 10.764 12.0495 12.8255 10.526ZM16.4666 18.9694C16.6123 18.9898 16.7601 18.9898 16.9058 18.9694C17.2518 18.9574 17.5868 18.8441 17.8691 18.6436C18.3458 18.3557 18.6914 17.8932 18.8324 17.3544C18.9944 16.8179 18.9437 16.2396 18.6908 15.7394C18.4875 15.3177 18.118 14.9996 17.6708 14.8611C17.5247 14.8482 17.3777 14.8482 17.2316 14.8611C16.2863 14.8839 15.4845 15.5619 15.3049 16.4903C14.944 17.4955 15.4632 18.6035 16.4666 18.9694Z" fill="#B3B3B3"/>
</svg>
