<svg width="52" height="52" viewBox="0 0 52 52" fill="none" xmlns="http://www.w3.org/2000/svg">
<path fill-rule="evenodd" clip-rule="evenodd" d="M15.5276 4.75018H36.7696C42.5175 4.70161 47.2501 9.25587 47.4224 15.0013V30.3886C47.25 36.1423 42.5045 40.6999 36.7485 40.6397H33.4512C32.6298 40.6423 31.8534 41.015 31.3376 41.6543L28.2094 45.6279C27.6874 46.2564 26.9128 46.6199 26.0958 46.6199C25.2788 46.6199 24.5042 46.2564 23.9821 45.6279L20.8328 41.6543C20.3171 41.015 19.5406 40.6423 18.7192 40.6397H15.5276C9.73071 40.7583 4.92078 36.1841 4.74805 30.3886V15.0013C4.92078 9.20579 9.73071 4.63164 15.5276 4.75018ZM18.1688 26.9011C19.0443 26.9011 19.754 26.1913 19.754 25.3158V20.2431C19.754 19.3676 19.0443 18.6579 18.1688 18.6579C17.2933 18.6579 16.5836 19.3676 16.5836 20.2431V25.3158C16.5836 26.1913 17.2933 26.9011 18.1688 26.9011ZM27.6802 25.3158C27.6802 26.1913 26.9704 26.9011 26.0949 26.9011C25.2194 26.9011 24.5097 26.1913 24.5097 25.3158V20.2431C24.5097 19.3676 25.2194 18.6579 26.0949 18.6579C26.9704 18.6579 27.6802 19.3676 27.6802 20.2431V25.3158ZM34.0211 26.9011C34.8966 26.9011 35.6063 26.1913 35.6063 25.3158V20.2431C35.6063 19.3676 34.8966 18.6579 34.0211 18.6579C33.1456 18.6579 32.4359 19.3676 32.4359 20.2431V25.3158C32.4359 26.1913 33.1456 26.9011 34.0211 26.9011Z" fill="white"/>
</svg>
