<svg width="376" height="344" viewBox="0 0 376 344" fill="none" xmlns="http://www.w3.org/2000/svg">
<path d="M176.072 254.394H5.20421C3.86484 254.392 2.58098 253.859 1.6339 252.911C0.686812 251.964 0.153707 250.681 0.151367 249.341V9.14971C0.165335 7.81802 0.70357 6.54549 1.6494 5.60794C2.59523 4.67039 3.87245 4.14337 5.20421 4.14111H176.072C177.41 4.14346 178.693 4.67685 179.639 5.62418C180.585 6.57152 181.116 7.85539 181.116 9.19396V249.341C181.116 250.68 180.585 251.964 179.639 252.911C178.693 253.858 177.41 254.392 176.072 254.394ZM5.20421 4.3181C3.92351 4.32044 2.69593 4.83023 1.79033 5.73583C0.884732 6.64142 0.374934 7.86901 0.372595 9.14971V249.341C0.374934 250.622 0.884732 251.849 1.79033 252.755C2.69593 253.661 3.92351 254.17 5.20421 254.173H176.072C177.352 254.17 178.578 253.66 179.482 252.755C180.387 251.849 180.895 250.621 180.895 249.341V9.14971C180.895 7.86982 180.387 6.64222 179.482 5.73637C178.578 4.83052 177.352 4.32044 176.072 4.3181H5.20421Z" fill="#535AA7"/>
<path d="M367.478 254.394H196.602C195.263 254.392 193.98 253.858 193.034 252.911C192.089 251.964 191.558 250.68 191.558 249.341V9.14971C191.569 7.81883 192.106 6.54629 193.05 5.60849C193.994 4.6707 195.271 4.14339 196.602 4.14111H367.478C368.809 4.14339 370.085 4.6707 371.03 5.60849C371.974 6.54629 372.51 7.81883 372.522 9.14971V249.341C372.522 250.68 371.991 251.964 371.045 252.911C370.1 253.858 368.817 254.392 367.478 254.394ZM196.602 4.3181C195.322 4.32044 194.095 4.83052 193.191 5.73637C192.287 6.64222 191.779 7.86982 191.779 9.14971V249.341C191.779 250.621 192.287 251.849 193.191 252.755C194.095 253.66 195.322 254.17 196.602 254.173H367.478C368.76 254.17 369.988 253.661 370.895 252.756C371.802 251.85 372.314 250.623 372.318 249.341V9.14971C372.314 7.86819 371.802 6.64063 370.895 5.73528C369.988 4.82994 368.76 4.32043 367.478 4.3181H196.602Z" fill="#535AA7"/>
<path d="M148.95 126.905L147.737 230.917C143.454 265.526 82.1035 293.003 82.1035 293.003C82.1035 293.003 20.7438 265.553 16.4342 230.917L15.1865 126.905L80.7585 105.322L148.95 126.905Z" fill="#535AA7"/>
<path d="M140.392 133.489L139.339 226.882C135.605 257.066 82.0943 281.03 82.0943 281.03C82.0943 281.03 28.5837 257.066 24.8582 226.882L23.7344 133.489L80.9262 114.667L140.392 133.489Z" fill="#474D8F"/>
<path d="M136.641 139.382L135.65 225.121C132.11 253.438 81.9797 275.88 81.9797 275.88C81.9797 275.88 31.8141 253.412 28.3187 225.121L27.2656 139.382L80.8824 121.737L136.641 139.382Z" stroke="#535AA7" stroke-width="2.95052" stroke-linecap="round" stroke-linejoin="round"/>
<path d="M354.754 91.8003H236.724V298.905H354.754V91.8003Z" fill="#535AA7"/>
<path d="M346.196 99.9417H245.449V298.905H346.196V99.9417Z" fill="#474D8F"/>
<path d="M248.28 299.79C248.104 299.791 247.929 299.755 247.767 299.684C247.607 299.62 247.463 299.524 247.342 299.401C247.214 299.28 247.114 299.132 247.05 298.967C246.987 298.806 246.954 298.635 246.953 298.463C246.953 298.267 246.997 298.073 247.081 297.896C247.165 297.719 247.287 297.563 247.438 297.438C247.59 297.314 247.767 297.225 247.957 297.177C248.147 297.129 248.345 297.124 248.537 297.162L248.785 297.233L249.015 297.356C249.087 297.408 249.155 297.464 249.218 297.525C249.281 297.584 249.335 297.653 249.378 297.728C249.429 297.799 249.471 297.876 249.502 297.958C249.537 298.038 249.564 298.121 249.581 298.206C249.59 298.291 249.59 298.377 249.581 298.463C249.582 298.636 249.546 298.808 249.475 298.967C249.412 299.129 249.315 299.277 249.192 299.401C248.949 299.642 248.623 299.781 248.28 299.79Z" fill="#EAE5FF"/>
<path d="M246.936 265.862C246.937 265.687 246.972 265.514 247.041 265.353C247.109 265.192 247.209 265.046 247.334 264.923C247.459 264.801 247.607 264.704 247.769 264.639C247.932 264.574 248.106 264.541 248.281 264.544C248.633 264.544 248.97 264.684 249.219 264.933C249.468 265.181 249.608 265.519 249.608 265.871C249.608 266.223 249.468 266.561 249.219 266.81C248.97 267.059 248.633 267.199 248.281 267.199C248.104 267.201 247.929 267.168 247.765 267.102C247.602 267.036 247.453 266.937 247.327 266.813C247.202 266.689 247.103 266.54 247.036 266.377C246.968 266.214 246.934 266.039 246.936 265.862ZM246.936 233.271C246.936 232.919 247.075 232.581 247.324 232.332C247.573 232.083 247.911 231.944 248.263 231.944C248.615 231.944 248.953 232.083 249.202 232.332C249.45 232.581 249.59 232.919 249.59 233.271C249.59 233.623 249.45 233.961 249.202 234.21C248.953 234.459 248.615 234.598 248.263 234.598C247.911 234.598 247.573 234.459 247.324 234.21C247.075 233.961 246.936 233.623 246.936 233.271ZM246.936 200.671C246.936 200.319 247.075 199.981 247.324 199.732C247.573 199.483 247.911 199.344 248.263 199.344C248.615 199.344 248.953 199.483 249.202 199.732C249.45 199.981 249.59 200.319 249.59 200.671C249.59 201.023 249.45 201.361 249.202 201.609C248.953 201.858 248.615 201.998 248.263 201.998C248.089 201.998 247.916 201.964 247.755 201.897C247.594 201.83 247.448 201.733 247.324 201.609C247.201 201.486 247.103 201.34 247.037 201.179C246.97 201.018 246.936 200.845 246.936 200.671ZM246.936 168.071C246.936 167.719 247.075 167.381 247.324 167.132C247.573 166.883 247.911 166.743 248.263 166.743C248.615 166.743 248.953 166.883 249.202 167.132C249.45 167.381 249.59 167.719 249.59 168.071C249.59 168.423 249.45 168.76 249.202 169.009C248.953 169.258 248.615 169.398 248.263 169.398C247.914 169.398 247.579 169.261 247.331 169.016C247.082 168.771 246.94 168.437 246.936 168.088V168.071ZM246.936 135.479C246.936 135.127 247.075 134.79 247.324 134.541C247.573 134.292 247.911 134.152 248.263 134.152C248.615 134.152 248.953 134.292 249.202 134.541C249.45 134.79 249.59 135.127 249.59 135.479C249.59 135.832 249.45 136.169 249.202 136.418C248.953 136.667 248.615 136.807 248.263 136.807C248.089 136.807 247.916 136.772 247.755 136.706C247.594 136.639 247.448 136.541 247.324 136.418C247.201 136.295 247.103 136.148 247.037 135.987C246.97 135.826 246.936 135.654 246.936 135.479Z" fill="#EAE5FF"/>
<path d="M248.281 104.207C248.106 104.208 247.934 104.174 247.773 104.107C247.611 104.04 247.465 103.942 247.343 103.818C247.277 103.758 247.221 103.689 247.175 103.614C247.128 103.543 247.087 103.469 247.051 103.393C247.014 103.311 246.991 103.225 246.98 103.136C246.971 103.051 246.971 102.965 246.98 102.88C246.982 102.528 247.122 102.191 247.369 101.942C247.428 101.879 247.493 101.822 247.564 101.773C247.636 101.726 247.713 101.688 247.794 101.658C247.874 101.624 247.957 101.597 248.042 101.579C248.214 101.543 248.392 101.543 248.564 101.579C248.649 101.597 248.732 101.624 248.812 101.658C248.893 101.688 248.97 101.726 249.042 101.773C249.114 101.825 249.182 101.881 249.245 101.942C249.493 102.191 249.633 102.528 249.635 102.88C249.644 102.965 249.644 103.051 249.635 103.136C249.616 103.224 249.59 103.31 249.555 103.393C249.523 103.471 249.481 103.545 249.431 103.614C249.388 103.689 249.335 103.758 249.272 103.818C249.142 103.946 248.987 104.048 248.817 104.114C248.646 104.181 248.464 104.213 248.281 104.207Z" fill="#F2F2F2"/>
<path d="M310.118 102.879C310.118 102.527 310.258 102.19 310.507 101.941C310.756 101.692 311.094 101.552 311.446 101.552C311.798 101.552 312.135 101.692 312.384 101.941C312.633 102.19 312.773 102.527 312.773 102.879C312.773 103.231 312.633 103.569 312.384 103.818C312.135 104.067 311.798 104.207 311.446 104.207C311.094 104.207 310.756 104.067 310.507 103.818C310.258 103.569 310.118 103.231 310.118 102.879ZM278.527 102.879C278.527 102.527 278.667 102.19 278.916 101.941C279.165 101.692 279.502 101.552 279.854 101.552C280.206 101.552 280.544 101.692 280.793 101.941C281.042 102.19 281.182 102.527 281.182 102.879C281.182 103.231 281.042 103.569 280.793 103.818C280.544 104.067 280.206 104.207 279.854 104.207C279.502 104.207 279.165 104.067 278.916 103.818C278.667 103.569 278.527 103.231 278.527 102.879Z" fill="#EAE5FF"/>
<path d="M343.037 104.207C342.952 104.215 342.866 104.215 342.78 104.207L342.532 104.136L342.302 104.012C342.231 103.961 342.163 103.905 342.099 103.844C341.85 103.595 341.71 103.258 341.709 102.906C341.712 102.554 341.851 102.218 342.099 101.968C342.16 101.907 342.229 101.854 342.302 101.809C342.372 101.755 342.45 101.714 342.532 101.685C342.612 101.649 342.695 101.622 342.78 101.605C342.952 101.57 343.13 101.57 343.302 101.605L343.55 101.685C343.63 101.714 343.705 101.756 343.771 101.809C343.847 101.851 343.915 101.905 343.975 101.968C344.222 102.218 344.362 102.554 344.364 102.906C344.364 103.258 344.224 103.595 343.975 103.844C343.913 103.907 343.845 103.963 343.771 104.012C343.701 104.059 343.627 104.1 343.55 104.136L343.302 104.207C343.214 104.215 343.125 104.215 343.037 104.207Z" fill="#F2F2F2"/>
<path d="M341.709 265.862C341.709 265.51 341.849 265.173 342.098 264.924C342.347 264.675 342.685 264.535 343.037 264.535C343.389 264.535 343.727 264.675 343.975 264.924C344.224 265.173 344.364 265.51 344.364 265.862C344.364 266.214 344.224 266.552 343.975 266.801C343.727 267.05 343.389 267.19 343.037 267.19C342.685 267.19 342.347 267.05 342.098 266.801C341.849 266.552 341.709 266.214 341.709 265.862ZM341.709 233.271C341.709 232.919 341.849 232.581 342.098 232.332C342.347 232.083 342.685 231.944 343.037 231.944C343.389 231.944 343.727 232.083 343.975 232.332C344.224 232.581 344.364 232.919 344.364 233.271C344.364 233.623 344.224 233.961 343.975 234.21C343.727 234.459 343.389 234.598 343.037 234.598C342.685 234.598 342.347 234.459 342.098 234.21C341.849 233.961 341.709 233.623 341.709 233.271ZM341.709 200.671C341.709 200.319 341.849 199.981 342.098 199.732C342.347 199.483 342.685 199.344 343.037 199.344C343.389 199.344 343.727 199.483 343.975 199.732C344.224 199.981 344.364 200.319 344.364 200.671C344.364 201.023 344.224 201.361 343.975 201.609C343.727 201.858 343.389 201.998 343.037 201.998C342.863 201.998 342.69 201.964 342.529 201.897C342.368 201.83 342.222 201.733 342.098 201.609C341.975 201.486 341.877 201.34 341.811 201.179C341.744 201.018 341.709 200.845 341.709 200.671ZM341.709 168.071C341.709 167.719 341.849 167.381 342.098 167.132C342.347 166.883 342.685 166.743 343.037 166.743C343.389 166.743 343.727 166.883 343.975 167.132C344.224 167.381 344.364 167.719 344.364 168.071C344.364 168.423 344.224 168.76 343.975 169.009C343.727 169.258 343.389 169.398 343.037 169.398C342.688 169.398 342.353 169.261 342.104 169.016C341.856 168.771 341.714 168.437 341.709 168.088V168.071ZM341.709 135.479C341.709 135.127 341.849 134.79 342.098 134.541C342.347 134.292 342.685 134.152 343.037 134.152C343.389 134.152 343.727 134.292 343.975 134.541C344.224 134.79 344.364 135.127 344.364 135.479C344.364 135.832 344.224 136.169 343.975 136.418C343.727 136.667 343.389 136.807 343.037 136.807C342.863 136.807 342.69 136.772 342.529 136.706C342.368 136.639 342.222 136.541 342.098 136.418C341.975 136.295 341.877 136.148 341.811 135.987C341.744 135.826 341.709 135.654 341.709 135.479Z" fill="#EAE5FF"/>
<path d="M343.037 299.79C342.774 299.79 342.518 299.712 342.3 299.566C342.082 299.42 341.912 299.213 341.811 298.97C341.711 298.728 341.685 298.461 341.736 298.204C341.787 297.947 341.913 297.71 342.099 297.525C342.162 297.464 342.23 297.408 342.302 297.356L342.532 297.233L342.78 297.162C342.952 297.126 343.13 297.126 343.302 297.162L343.55 297.233C343.627 297.268 343.7 297.31 343.771 297.356C343.845 297.405 343.913 297.462 343.975 297.525C344.224 297.773 344.364 298.111 344.364 298.463C344.366 298.637 344.332 298.81 344.265 298.971C344.198 299.133 344.1 299.279 343.975 299.401C343.726 299.65 343.389 299.79 343.037 299.79Z" fill="#F2F2F2"/>
<path d="M49.1762 299.241H12.709V299.462H49.1762V299.241Z" fill="#535AA7"/>
<path d="M123.508 297.471H86.9346V297.693H123.508V297.471Z" fill="#535AA7"/>
<path d="M171.099 297.471H162.25V297.693H171.099V297.471Z" fill="#535AA7"/>
<path d="M82.6518 305.029H41.7246V305.25H82.6518V305.029Z" fill="#535AA7"/>
<path d="M224.211 299.126H205.097V299.347H224.211V299.126Z" fill="#535AA7"/>
<path d="M256.802 299.126H232.087V299.347H256.802V299.126Z" fill="#535AA7"/>
<path d="M375.999 302.869H320.746V303.091H375.999V302.869Z" fill="#535AA7"/>
<path d="M171.657 29.7327H130.889L133.119 4.3269H173.878L171.657 29.7327Z" fill="#4E549C"/>
<path d="M172.479 0.875732L171.364 14.1406L170.249 30.0867H131.048L133.278 0.875732H172.479Z" fill="#535AA7"/>
<path d="M168.736 4.32694L170.957 29.7327H130.198L127.968 4.32694H131.437L132.64 2.41553H143.622L145.197 4.32694H168.736Z" fill="#474D8F"/>
<path d="M234.839 35.405H191.461V78.7834H234.839V35.405Z" fill="#535AA7"/>
<path d="M235.945 35.405H234.839V78.7834H235.945V35.405Z" fill="#414681"/>
<path d="M230.821 39.4224H195.46V74.7834H230.821V39.4224Z" fill="#474D8F"/>
<path d="M195.796 39.4224H195.469V74.7834H195.796V39.4224Z" fill="#414681"/>
<path d="M213.477 62.209C217.285 62.209 220.371 58.2788 220.371 53.4307C220.371 48.5825 217.285 44.6523 213.477 44.6523C209.67 44.6523 206.584 48.5825 206.584 53.4307C206.584 58.2788 209.67 62.209 213.477 62.209Z" fill="#535AA7"/>
<path d="M209.876 66.6511H217.141V59.386H209.876V66.6511Z" fill="#535AA7"/>
<path d="M226.574 74.7834H199.956V72.3057C199.956 70.0433 200.855 67.8735 202.455 66.2737C204.055 64.6739 206.224 63.7752 208.487 63.7752H218.079C220.342 63.7752 222.512 64.6739 224.111 66.2737C225.711 67.8735 226.61 70.0433 226.61 72.3057V74.7834H226.574Z" fill="#535AA7"/>
<path d="M199.292 60.0231C199.292 61.4655 201.946 62.6779 201.946 62.6779C201.946 62.6779 204.601 61.5009 204.601 60.0231C204.601 59.3329 203.645 58.9435 203.017 59.1382C202.776 59.2221 202.555 59.3529 202.365 59.5231C202.175 59.6932 202.021 59.8992 201.911 60.1293C201.572 59.6729 201.125 59.308 200.61 59.0674C200.459 59.0145 200.298 58.999 200.139 59.0221C199.981 59.0453 199.83 59.1064 199.701 59.2004C199.571 59.2943 199.466 59.4182 199.395 59.5614C199.324 59.7047 199.288 59.8631 199.292 60.0231Z" fill="#535AA7"/>
<path d="M222.848 53.5722C222.848 55.4748 226.291 57.0145 226.291 57.0145C226.291 57.0145 229.733 55.4748 229.733 53.5722C229.733 52.6873 228.459 52.1652 227.653 52.3953C227.046 52.6379 226.557 53.1077 226.291 53.7049C225.842 53.1087 225.256 52.6292 224.583 52.3068C224.383 52.2362 224.17 52.2153 223.961 52.2458C223.751 52.2764 223.553 52.3575 223.382 52.4821C223.211 52.6068 223.073 52.7712 222.98 52.9611C222.887 53.1511 222.842 53.3608 222.848 53.5722Z" fill="#535AA7"/>
<path d="M147.144 270.137C147.551 272.694 149.4 274.897 149.542 277.481C149.657 279.508 148.71 281.41 148.241 283.384C147.772 285.357 148.002 287.808 149.728 288.852C150.356 289.171 151.057 289.317 151.76 289.275C152.463 289.233 153.142 289.005 153.728 288.613C154.883 287.814 155.838 286.756 156.515 285.525C159.229 281.138 160.712 276.1 160.807 270.942C160.807 268.774 160.586 266.473 159.311 264.747C155.365 259.234 146.135 263.765 147.144 270.137Z" fill="#535AA7"/>
<path d="M143.861 263.367C144.242 263.783 144.738 264.075 145.286 264.208C145.617 264.315 145.971 264.337 146.313 264.27C146.655 264.204 146.975 264.051 147.242 263.827C147.445 263.566 147.59 263.264 147.666 262.942C147.742 262.619 147.749 262.285 147.684 261.96C147.63 261.145 147.351 260.361 146.879 259.694C146.642 259.366 146.327 259.101 145.962 258.924C145.598 258.746 145.195 258.661 144.79 258.677C144.386 258.71 144.006 258.881 143.712 259.161C143.419 259.442 143.231 259.814 143.18 260.217C143.081 261.312 143.319 262.41 143.861 263.367Z" fill="#535AA7"/>
<path d="M151.216 258.049C151.035 257.769 150.776 257.548 150.47 257.415C150.165 257.281 149.827 257.24 149.499 257.297C149.174 257.369 148.879 257.538 148.651 257.781C148.424 258.024 148.275 258.33 148.225 258.659C148.21 258.874 148.21 259.09 148.225 259.305C148.228 259.653 148.266 260 148.34 260.341C148.414 260.669 148.569 260.973 148.791 261.226C149.095 261.521 149.48 261.718 149.897 261.792C150.155 261.854 150.424 261.852 150.682 261.787C150.939 261.723 151.177 261.597 151.375 261.42C151.551 261.206 151.682 260.958 151.761 260.692C151.84 260.427 151.865 260.147 151.835 259.872C151.815 259.216 151.599 258.581 151.216 258.049Z" fill="#535AA7"/>
<path d="M155.312 257.827C155.167 257.56 154.931 257.354 154.646 257.247C154.362 257.14 154.049 257.139 153.763 257.243C153.485 257.359 153.239 257.542 153.048 257.775C152.857 258.008 152.725 258.284 152.666 258.58C152.666 258.774 152.613 258.969 152.604 259.164C152.599 259.485 152.634 259.807 152.71 260.119C152.774 260.428 152.935 260.707 153.17 260.916C153.421 261.126 153.73 261.255 154.055 261.287C154.267 261.313 154.482 261.293 154.686 261.227C154.889 261.161 155.076 261.052 155.232 260.907C155.576 260.516 155.765 260.012 155.763 259.491C155.802 258.902 155.643 258.316 155.312 257.827Z" fill="#535AA7"/>
<path d="M158.966 258.677C158.532 258.031 158.081 257.987 157.586 258.261C157.145 258.583 156.832 259.05 156.701 259.58C156.651 259.75 156.615 259.925 156.595 260.102C156.547 260.395 156.547 260.694 156.595 260.987C156.652 261.27 156.817 261.521 157.055 261.686C157.274 261.823 157.532 261.885 157.789 261.863C158.124 261.833 158.437 261.685 158.674 261.447C159 261.098 159.207 260.655 159.267 260.181C159.357 259.66 159.25 259.124 158.966 258.677Z" fill="#535AA7"/>
<path d="M159.683 262.261C159.634 262.47 159.634 262.688 159.683 262.898C159.701 263.005 159.745 263.107 159.811 263.193C159.877 263.28 159.964 263.348 160.063 263.393C160.244 263.435 160.433 263.421 160.606 263.355C160.78 263.289 160.929 263.173 161.037 263.022C161.298 262.754 161.49 262.426 161.594 262.066C161.646 261.886 161.661 261.698 161.638 261.513C161.615 261.327 161.555 261.148 161.461 260.987C160.674 259.703 159.789 261.624 159.683 262.261Z" fill="#535AA7"/>
<path d="M160.401 329.24C160.994 327.151 161.339 324.86 160.551 322.833C158.118 316.524 148.065 318.532 147.401 324.957L160.401 329.24Z" fill="#535AA7"/>
<path d="M146.003 317.576C146.266 318.077 146.673 318.487 147.171 318.753C147.463 318.942 147.798 319.054 148.145 319.077C148.492 319.1 148.839 319.034 149.153 318.886C149.412 318.683 149.624 318.427 149.777 318.136C149.929 317.845 150.018 317.524 150.038 317.196C150.194 316.397 150.127 315.57 149.843 314.807C149.697 314.426 149.459 314.087 149.15 313.82C148.841 313.553 148.472 313.366 148.074 313.276C147.676 313.205 147.265 313.273 146.911 313.468C146.557 313.662 146.28 313.973 146.127 314.347C145.761 315.386 145.717 316.512 146.003 317.576Z" fill="#535AA7"/>
<path d="M154.48 314.311C154.375 313.995 154.18 313.716 153.92 313.509C153.659 313.301 153.343 313.174 153.011 313.143C152.679 313.132 152.35 313.22 152.068 313.397C151.786 313.574 151.563 313.83 151.427 314.134C151.349 314.337 151.284 314.543 151.233 314.754C151.143 315.089 151.09 315.433 151.073 315.78C151.051 316.126 151.121 316.471 151.277 316.78C151.487 317.134 151.794 317.42 152.162 317.603C152.395 317.727 152.655 317.792 152.918 317.792C153.182 317.792 153.442 317.727 153.675 317.603C153.907 317.446 154.105 317.243 154.257 317.007C154.409 316.772 154.512 316.508 154.56 316.232C154.719 315.597 154.691 314.93 154.48 314.311Z" fill="#535AA7"/>
<path d="M158.462 315.152C158.39 314.861 158.217 314.604 157.974 314.428C157.731 314.251 157.434 314.166 157.135 314.188C156.835 314.231 156.551 314.346 156.306 314.523C156.061 314.7 155.862 314.934 155.728 315.205C155.648 315.381 155.577 315.562 155.515 315.745C155.416 316.046 155.356 316.358 155.338 316.674C155.321 316.986 155.401 317.295 155.568 317.559C155.764 317.836 156.043 318.044 156.365 318.152C156.564 318.232 156.778 318.268 156.992 318.256C157.206 318.243 157.415 318.184 157.604 318.081C158.038 317.796 158.353 317.362 158.489 316.86C158.668 316.303 158.659 315.703 158.462 315.152Z" fill="#535AA7"/>
<path d="M161.772 316.913C161.524 316.17 161.055 316.028 160.55 316.152C160.035 316.344 159.603 316.71 159.329 317.187C159.241 317.342 159.161 317.501 159.09 317.665C158.982 317.93 158.916 318.211 158.896 318.497C158.879 318.782 158.97 319.064 159.152 319.284C159.327 319.475 159.561 319.603 159.816 319.647C160.147 319.712 160.491 319.652 160.78 319.479C161.179 319.223 161.489 318.849 161.665 318.408C161.881 317.939 161.919 317.408 161.772 316.913Z" fill="#535AA7"/>
<path d="M161.56 320.559C161.451 320.745 161.388 320.954 161.374 321.169C161.365 321.277 161.382 321.386 161.424 321.486C161.465 321.586 161.53 321.675 161.613 321.745C161.777 321.831 161.962 321.867 162.146 321.848C162.331 321.829 162.505 321.756 162.648 321.638C162.968 321.445 163.238 321.178 163.436 320.86C163.531 320.699 163.594 320.52 163.62 320.335C163.646 320.15 163.634 319.961 163.586 319.78C163.126 318.338 161.843 319.984 161.56 320.559Z" fill="#535AA7"/>
<path d="M125.517 291.675C125.845 294.25 124.632 296.879 125.252 299.401C125.703 301.374 127.146 302.94 128.137 304.71C129.128 306.48 129.597 308.887 128.216 310.374C127.704 310.856 127.072 311.192 126.386 311.347C125.699 311.503 124.984 311.472 124.314 311.258C122.982 310.802 121.772 310.048 120.774 309.055C116.952 305.591 114.134 301.162 112.615 296.233C111.978 294.153 111.589 291.879 112.332 289.835C114.659 283.472 124.73 285.277 125.517 291.675Z" fill="#535AA7"/>
<path d="M126.764 284.277C126.515 284.781 126.121 285.197 125.631 285.472C125.344 285.67 125.011 285.79 124.664 285.821C124.316 285.852 123.967 285.793 123.649 285.649C123.38 285.456 123.156 285.206 122.992 284.917C122.829 284.628 122.73 284.307 122.702 283.977C122.532 283.179 122.581 282.35 122.844 281.579C122.987 281.193 123.224 280.849 123.533 280.577C123.841 280.305 124.213 280.114 124.614 280.021C125.011 279.941 125.423 279.999 125.782 280.186C126.141 280.372 126.425 280.677 126.587 281.048C126.835 281.871 127.145 283.472 126.764 284.277Z" fill="#535AA7"/>
<path d="M118.261 281.189C118.358 280.87 118.547 280.586 118.803 280.373C119.059 280.159 119.372 280.024 119.703 279.986C120.036 279.969 120.366 280.051 120.651 280.223C120.937 280.395 121.164 280.648 121.305 280.95C121.391 281.148 121.461 281.352 121.517 281.561C121.613 281.893 121.672 282.234 121.694 282.578C121.726 282.925 121.662 283.274 121.508 283.587C121.312 283.966 121.003 284.275 120.624 284.472C120.396 284.606 120.139 284.681 119.875 284.692C119.611 284.703 119.348 284.649 119.11 284.534C118.879 284.378 118.682 284.176 118.53 283.942C118.378 283.708 118.274 283.446 118.225 283.171C118.033 282.523 118.046 281.83 118.261 281.189Z" fill="#535AA7"/>
<path d="M114.261 282.109C114.327 281.812 114.497 281.548 114.74 281.366C114.984 281.184 115.285 281.096 115.589 281.118C115.888 281.155 116.174 281.263 116.422 281.434C116.67 281.605 116.873 281.834 117.013 282.101C117.099 282.276 117.172 282.456 117.235 282.64C117.343 282.94 117.411 283.252 117.438 283.569C117.456 283.88 117.379 284.189 117.217 284.454C117.028 284.735 116.756 284.949 116.438 285.065C116.241 285.15 116.028 285.19 115.814 285.183C115.6 285.175 115.39 285.12 115.199 285.021C114.767 284.742 114.452 284.313 114.314 283.817C114.109 283.269 114.09 282.669 114.261 282.109Z" fill="#535AA7"/>
<path d="M110.987 283.941C111.226 283.198 111.686 283.056 112.199 283.154C112.719 283.337 113.157 283.698 113.438 284.171C113.531 284.322 113.614 284.479 113.686 284.64C113.805 284.9 113.877 285.179 113.898 285.463C113.926 285.75 113.84 286.036 113.659 286.26C113.488 286.453 113.258 286.583 113.005 286.631C112.674 286.704 112.327 286.654 112.031 286.49C111.62 286.243 111.296 285.875 111.102 285.437C110.884 284.969 110.843 284.437 110.987 283.941Z" fill="#535AA7"/>
<path d="M111.287 287.552C111.396 287.739 111.466 287.947 111.49 288.162C111.5 288.271 111.484 288.38 111.444 288.482C111.405 288.583 111.341 288.674 111.26 288.746C111.096 288.834 110.91 288.872 110.725 288.856C110.54 288.84 110.363 288.772 110.216 288.658C109.892 288.473 109.618 288.212 109.42 287.897C109.319 287.738 109.252 287.56 109.223 287.374C109.194 287.189 109.204 286.999 109.251 286.817C109.667 285.392 110.986 287.012 111.287 287.552Z" fill="#535AA7"/>
<path d="M103.801 79.2347C101.765 79.521 99.6891 79.197 97.8368 78.3036C95.9845 77.4102 94.4387 75.9875 93.3949 74.2156C92.3511 72.4436 91.8562 70.402 91.9728 68.3487C92.0894 66.2955 92.8122 64.323 94.0499 62.6806C95.2876 61.0382 96.9845 59.7997 98.926 59.1218C100.868 58.4438 102.967 58.3568 104.958 58.8718C106.949 59.3868 108.742 60.4807 110.111 62.0151C111.481 63.5494 112.364 65.4554 112.65 67.4919C113.029 70.2218 112.31 72.9904 110.652 75.1915C108.993 77.3925 106.53 78.8464 103.801 79.2347ZM101.695 64.1027C100.74 64.2344 99.8446 64.6466 99.1234 65.2871C98.4022 65.9276 97.8871 66.7676 97.6434 67.7009C97.3997 68.6342 97.4382 69.6188 97.7542 70.5302C98.0702 71.4415 98.6494 72.2387 99.4185 72.8208C100.188 73.4029 101.112 73.7438 102.075 73.8004C103.038 73.8569 103.996 73.6266 104.828 73.1386C105.66 72.6505 106.329 71.9267 106.749 71.0586C107.17 70.1905 107.323 69.2172 107.19 68.2618C107.01 66.9829 106.331 65.8273 105.301 65.0479C104.272 64.2685 102.975 63.9287 101.695 64.1027Z" fill="#535AA7"/>
<path d="M99.9029 37.9209L95.9941 38.4668L99.5055 63.6109L103.414 63.065L99.9029 37.9209Z" fill="#535AA7"/>
<path d="M103.21 34.4213L95.877 35.4583L96.4295 39.3655L103.762 38.3286L103.21 34.4213Z" fill="#535AA7"/>
<path d="M103.813 39.737L96.915 40.699L97.4602 44.6078L104.358 43.6458L103.813 39.737Z" fill="#535AA7"/>
<path d="M104.818 46.8233L98.7969 47.6631L99.3421 51.572L105.363 50.7322L104.818 46.8233Z" fill="#535AA7"/>
<path d="M186.337 343.823C281.096 343.823 357.913 339.338 357.913 333.806C357.913 328.273 281.096 323.789 186.337 323.789C91.5787 323.789 14.7617 328.273 14.7617 333.806C14.7617 339.338 91.5787 343.823 186.337 343.823Z" fill="#272A4E"/>
<path d="M95.6076 167.448C103.766 158.925 102.841 144.8 93.5423 135.899C84.2433 126.997 70.0914 126.689 61.9331 135.211C53.7748 143.734 54.6994 157.859 63.9984 166.761C73.2974 175.662 87.4493 175.97 95.6076 167.448Z" fill="#7F66FF"/>
<g opacity="0.8">
<path d="M95.6076 167.448C103.766 158.925 102.841 144.8 93.5423 135.899C84.2433 126.997 70.0914 126.689 61.9331 135.211C53.7748 143.734 54.6994 157.859 63.9984 166.761C73.2974 175.662 87.4493 175.97 95.6076 167.448Z" fill="#EAE5FF"/>
</g>
<path d="M68.3703 137.329C68.1845 137.329 68.0035 137.271 67.8528 137.162C67.7022 137.053 67.5895 136.9 67.5308 136.724C67.472 136.548 67.4702 136.358 67.5256 136.18C67.581 136.003 67.6907 135.848 67.8393 135.736C70.8191 133.598 74.4106 132.48 78.0777 132.551C78.3124 132.551 78.5375 132.644 78.7035 132.81C78.8694 132.976 78.9627 133.201 78.9627 133.435C78.9627 133.67 78.8694 133.895 78.7035 134.061C78.5375 134.227 78.3124 134.32 78.0777 134.32C74.7933 134.248 71.5737 135.241 68.9012 137.152C68.748 137.267 68.5617 137.329 68.3703 137.329Z" fill="#7F66FF"/>
<path d="M72.5557 167.77C72.4105 167.769 72.2676 167.733 72.1398 167.664C69.4279 166.214 67.0747 164.175 65.2526 161.698C63.4306 159.22 62.1857 156.367 61.6094 153.346C61.0471 150.733 61.073 148.027 61.6852 145.426C62.2974 142.824 63.4806 140.391 65.149 138.302C65.2992 138.122 65.5151 138.008 65.749 137.986C65.983 137.965 66.216 138.037 66.3967 138.187C66.5774 138.338 66.6911 138.553 66.7127 138.787C66.7342 139.021 66.662 139.254 66.5118 139.435C65.0046 141.325 63.9375 143.527 63.3879 145.882C62.8384 148.236 62.8203 150.683 63.3349 153.045C63.8651 155.806 65.0044 158.415 66.6699 160.681C68.3354 162.946 70.4852 164.812 72.9628 166.142C73.1358 166.235 73.2728 166.383 73.3521 166.563C73.4315 166.743 73.4487 166.944 73.401 167.135C73.3533 167.326 73.2435 167.495 73.0888 167.617C72.9341 167.738 72.7435 167.804 72.5469 167.805L72.5557 167.77Z" fill="#7F66FF"/>
<path d="M81.4125 170.08C79.4318 170.071 77.4645 169.754 75.581 169.142C75.47 169.106 75.3672 169.048 75.2785 168.972C75.1897 168.896 75.1168 168.804 75.0638 168.7C75.0107 168.596 74.9787 168.483 74.9696 168.366C74.9604 168.25 74.9742 168.133 75.0102 168.022C75.0462 167.911 75.1038 167.808 75.1795 167.72C75.2553 167.631 75.3478 167.558 75.4517 167.505C75.5556 167.452 75.669 167.42 75.7853 167.411C75.9017 167.402 76.0186 167.415 76.1296 167.451C81.5718 169.221 87.0052 168.23 91.0315 164.797C93.0742 162.994 94.6178 160.695 95.5137 158.122C96.4096 155.549 96.6275 152.789 96.1463 150.107C96.1088 149.872 96.166 149.632 96.3054 149.44C96.4448 149.247 96.6549 149.118 96.8896 149.081C97.1243 149.043 97.3643 149.1 97.5568 149.24C97.7493 149.379 97.8786 149.589 97.9161 149.824C98.4526 152.804 98.2089 155.872 97.2087 158.73C96.2086 161.587 94.486 164.138 92.2085 166.133C89.2076 168.714 85.3708 170.117 81.4125 170.08Z" fill="#7F66FF"/>
<path d="M96.2975 147.842C96.1098 147.841 95.9272 147.781 95.7761 147.669C95.6249 147.558 95.5131 147.401 95.4568 147.222C94.6429 144.709 93.3102 142.396 91.5449 140.431C89.7796 138.466 87.6212 136.893 85.2096 135.816C84.9936 135.722 84.8239 135.546 84.7376 135.327C84.6513 135.108 84.6555 134.864 84.7494 134.648C84.8433 134.432 85.0191 134.262 85.2381 134.176C85.4572 134.089 85.7016 134.094 85.9175 134.188C88.5586 135.368 90.9221 137.091 92.8551 139.243C94.7881 141.396 96.2473 143.93 97.1382 146.683C97.2107 146.906 97.1919 147.148 97.0857 147.357C96.9795 147.566 96.7947 147.725 96.5718 147.798C96.4828 147.824 96.3905 147.839 96.2975 147.842Z" fill="#7F66FF"/>
<path d="M82.3514 134.816C82.2838 134.825 82.2154 134.825 82.1478 134.816C80.8161 134.506 79.4534 134.348 78.0861 134.347C77.8514 134.347 77.6263 134.254 77.4604 134.088C77.2944 133.922 77.2012 133.697 77.2012 133.462C77.2012 133.227 77.2944 133.002 77.4604 132.836C77.6263 132.67 77.8514 132.577 78.0861 132.577C79.576 132.582 81.0606 132.757 82.5106 133.099C82.7453 133.126 82.9597 133.245 83.1066 133.43C83.2534 133.615 83.3208 133.851 83.2938 134.086C83.2668 134.321 83.1477 134.535 82.9626 134.682C82.7776 134.829 82.5418 134.896 82.3071 134.869L82.3514 134.816Z" fill="#7F66FF"/>
<path d="M66.741 155.956C66.5602 155.957 66.3835 155.902 66.2348 155.799C66.0861 155.697 65.9724 155.551 65.9092 155.381C65.0797 153.24 64.7879 150.928 65.0595 148.648C65.331 146.368 66.1575 144.189 67.4666 142.302C68.704 140.515 70.3615 139.059 72.2933 138.062C74.2251 137.066 76.3721 136.559 78.5457 136.586C78.7804 136.586 79.0055 136.679 79.1714 136.845C79.3374 137.011 79.4306 137.236 79.4306 137.471C79.4306 137.705 79.3374 137.93 79.1714 138.096C79.0055 138.262 78.7804 138.356 78.5457 138.356C76.6571 138.333 74.7918 138.773 73.1122 139.637C71.4325 140.501 69.9896 141.762 68.909 143.311C67.761 144.972 67.0388 146.89 66.8058 148.896C66.5728 150.902 66.8362 152.935 67.5728 154.815C67.6529 155.034 67.643 155.277 67.5452 155.489C67.4474 155.701 67.2696 155.866 67.0507 155.948C66.9486 155.968 66.844 155.971 66.741 155.956Z" fill="#7F66FF"/>
<path d="M80.7756 166.062C78.1232 165.973 75.5314 165.246 73.2204 163.941C70.9095 162.636 68.9478 160.792 67.5019 158.567C67.3945 158.371 67.3649 158.142 67.419 157.926C67.4731 157.71 67.607 157.522 67.7938 157.4C67.9806 157.278 68.2066 157.231 68.4265 157.268C68.6464 157.306 68.844 157.425 68.9797 157.602C70.2648 159.582 72.0075 161.224 74.0606 162.388C76.1137 163.552 78.4169 164.206 80.7756 164.292C81.0103 164.292 81.2354 164.385 81.4013 164.551C81.5673 164.717 81.6605 164.942 81.6605 165.177C81.6605 165.412 81.5673 165.637 81.4013 165.803C81.2354 165.969 81.0103 166.062 80.7756 166.062Z" fill="#7F66FF"/>
<path d="M84.0858 165.682C83.8836 165.687 83.6856 165.624 83.5246 165.502C83.3635 165.379 83.2493 165.205 83.2009 165.009C83.1447 164.781 83.1812 164.541 83.3023 164.34C83.4234 164.139 83.6193 163.995 83.8468 163.938C91.0235 162.168 92.8818 155.877 92.2889 151.045C91.519 144.745 86.5458 138.364 78.5197 138.356C78.285 138.356 78.0599 138.262 77.8939 138.096C77.728 137.93 77.6348 137.705 77.6348 137.471C77.6348 137.236 77.728 137.011 77.8939 136.845C78.0599 136.679 78.285 136.586 78.5197 136.586C87.5723 136.586 93.1827 143.753 94.0499 150.833C94.9348 158.133 91.1031 163.956 84.2716 165.655C84.2108 165.67 84.1485 165.679 84.0858 165.682Z" fill="#7F66FF"/>
<path d="M74.9272 143.24C74.7594 143.239 74.5955 143.19 74.4545 143.099C74.3135 143.008 74.2012 142.879 74.1307 142.727C74.031 142.515 74.0198 142.271 74.0994 142.051C74.1791 141.83 74.3431 141.65 74.5555 141.55C75.9121 140.95 77.3817 140.648 78.865 140.665C79.0997 140.665 79.3248 140.758 79.4907 140.924C79.6567 141.09 79.7499 141.315 79.7499 141.55C79.7499 141.785 79.6567 142.01 79.4907 142.176C79.3248 142.342 79.0997 142.435 78.865 142.435C77.6437 142.436 76.4367 142.698 75.3254 143.205C75.1971 143.247 75.0609 143.259 74.9272 143.24Z" fill="#7F66FF"/>
<path d="M80.6167 161.939C78.3755 161.903 76.1916 161.225 74.3237 159.986C72.4558 158.747 70.9822 156.998 70.0774 154.948C68.2456 150.957 68.7854 146.789 71.5198 143.78C71.6785 143.608 71.8989 143.506 72.1327 143.496C72.3666 143.486 72.5948 143.569 72.7675 143.727C72.9396 143.886 73.0418 144.106 73.0517 144.34C73.0617 144.574 72.9786 144.802 72.8206 144.975C71.7211 146.218 71.0243 147.766 70.8221 149.414C70.6198 151.061 70.9217 152.732 71.6879 154.204C72.47 155.992 73.7601 157.51 75.3979 158.57C77.0356 159.631 78.9489 160.187 80.8999 160.169C82.3758 160.158 83.8171 159.72 85.0497 158.908C86.2824 158.097 87.2537 156.945 87.8464 155.594C88.5129 153.999 88.7137 152.248 88.4255 150.544C88.1374 148.84 87.372 147.253 86.2182 145.966C86.1427 145.878 86.0853 145.775 86.0493 145.665C86.0133 145.554 85.9994 145.438 86.0085 145.322C86.0175 145.206 86.0493 145.093 86.1019 144.989C86.1546 144.886 86.2272 144.794 86.3155 144.718C86.4038 144.643 86.5062 144.585 86.6167 144.549C86.7272 144.513 86.8437 144.499 86.9596 144.508C87.0754 144.517 87.1884 144.549 87.292 144.602C87.3955 144.655 87.4877 144.727 87.5633 144.815C88.9369 146.356 89.8449 148.255 90.1817 150.292C90.5185 152.328 90.2702 154.418 89.4658 156.319C88.7397 157.978 87.55 159.391 86.0399 160.389C84.5297 161.388 82.7633 161.929 80.953 161.947L80.6167 161.939Z" fill="#7F66FF"/>
<path d="M84.343 144.019C84.176 144.02 84.0126 143.971 83.874 143.877C82.3798 142.916 80.6423 142.4 78.8654 142.391C78.6307 142.391 78.4056 142.297 78.2397 142.131C78.0737 141.966 77.9805 141.74 77.9805 141.506C77.9805 141.271 78.0737 141.046 78.2397 140.88C78.4056 140.714 78.6307 140.621 78.8654 140.621C80.979 140.629 83.0459 141.243 84.8208 142.391C84.9811 142.494 85.1037 142.647 85.1701 142.826C85.2366 143.005 85.2435 143.2 85.1898 143.383C85.1361 143.566 85.0246 143.727 84.872 143.842C84.7194 143.956 84.5338 144.018 84.343 144.019Z" fill="#7F66FF"/>
<path d="M80.148 157.948C79.114 157.941 78.0941 157.707 77.16 157.264C76.2259 156.821 75.4003 156.178 74.7412 155.381C73.8906 154.408 73.3383 153.21 73.15 151.931C72.9617 150.653 73.1454 149.347 73.6793 148.169C74.1558 147.101 74.9356 146.196 75.922 145.566C76.9084 144.937 78.0578 144.611 79.2277 144.63C79.4624 144.63 79.6874 144.723 79.8534 144.889C80.0193 145.055 80.1126 145.28 80.1126 145.515C80.1126 145.749 80.0193 145.974 79.8534 146.14C79.6874 146.306 79.4624 146.399 79.2277 146.399C78.4002 146.384 77.5864 146.612 76.8866 147.053C76.1869 147.495 75.6318 148.132 75.2898 148.886C74.9007 149.755 74.7698 150.718 74.9125 151.659C75.0553 152.6 75.4658 153.481 76.0951 154.196C76.7215 154.963 77.5532 155.537 78.4931 155.85C79.4331 156.164 80.4428 156.204 81.4045 155.965C82.187 155.789 82.9024 155.392 83.4656 154.821C84.0288 154.25 84.4161 153.529 84.5814 152.744C84.6322 152.516 84.7715 152.316 84.9689 152.19C85.1663 152.064 85.4056 152.022 85.6344 152.072C85.7484 152.096 85.8565 152.142 85.9525 152.208C86.0486 152.274 86.1306 152.359 86.1939 152.457C86.2572 152.555 86.3006 152.664 86.3215 152.779C86.3424 152.893 86.3405 153.011 86.3158 153.125C86.0815 154.232 85.5355 155.25 84.7422 156.057C83.9488 156.864 82.9413 157.428 81.8381 157.682C81.2873 157.838 80.7199 157.927 80.148 157.948Z" fill="#7F66FF"/>
<path d="M85.2982 150.939C85.1031 150.948 84.9104 150.892 84.7503 150.78C84.5902 150.668 84.4718 150.506 84.4133 150.319C84.0602 149.211 83.37 148.24 82.4389 147.542C81.5078 146.844 80.3822 146.454 79.2189 146.426C78.9842 146.426 78.7591 146.333 78.5932 146.167C78.4272 146.001 78.334 145.776 78.334 145.541C78.334 145.306 78.4272 145.081 78.5932 144.915C78.7591 144.749 78.9842 144.656 79.2189 144.656C80.7574 144.69 82.2471 145.203 83.4809 146.123C84.7147 147.043 85.6314 148.324 86.1035 149.788C86.1393 149.899 86.1527 150.016 86.1431 150.133C86.1336 150.249 86.1011 150.362 86.0477 150.466C85.9942 150.569 85.9208 150.661 85.8317 150.736C85.7426 150.811 85.6395 150.868 85.5283 150.903C85.4535 150.925 85.3762 150.937 85.2982 150.939Z" fill="#7F66FF"/>
<path d="M80.3873 154.266C80.1526 154.266 79.9275 154.173 79.7616 154.007C79.5956 153.841 79.5024 153.616 79.5024 153.381C79.5024 153.147 79.5956 152.922 79.7616 152.756C79.9275 152.59 80.1526 152.496 80.3873 152.496C80.5081 152.497 80.6277 152.472 80.7387 152.424C80.8496 152.377 80.9497 152.307 81.0326 152.219C81.1155 152.131 81.1795 152.027 81.2207 151.913C81.2619 151.8 81.2795 151.679 81.2722 151.558C81.2769 151.386 81.2473 151.215 81.1852 151.054C81.123 150.893 81.0295 150.746 80.9101 150.622C80.7907 150.498 80.6478 150.398 80.4897 150.33C80.3316 150.261 80.1614 150.224 79.9891 150.222C79.8593 150.226 79.7314 150.255 79.613 150.308C79.4945 150.361 79.3877 150.437 79.2988 150.532C79.2082 150.639 79.1396 150.763 79.0971 150.897C79.0545 151.03 79.0389 151.171 79.0511 151.311C79.058 151.427 79.0421 151.543 79.004 151.653C78.966 151.763 78.9067 151.865 78.8294 151.952C78.7522 152.039 78.6586 152.11 78.5539 152.161C78.4492 152.212 78.3355 152.242 78.2193 152.249C78.1031 152.256 77.9866 152.24 77.8766 152.202C77.7665 152.164 77.6651 152.104 77.578 152.027C77.4909 151.95 77.4198 151.856 77.3689 151.751C77.318 151.647 77.2882 151.533 77.2813 151.417C77.2498 151.046 77.2945 150.672 77.4128 150.318C77.531 149.965 77.7203 149.639 77.9689 149.362C78.2175 149.084 78.5202 148.86 78.8585 148.704C79.1968 148.547 79.5634 148.462 79.936 148.452C80.3411 148.454 80.7419 148.535 81.1153 148.692C81.4886 148.849 81.8271 149.079 82.1111 149.368C82.395 149.657 82.6188 149.999 82.7695 150.375C82.9202 150.751 82.9948 151.153 82.9889 151.558C82.996 151.912 82.9326 152.262 82.8023 152.591C82.6721 152.919 82.4776 153.218 82.2304 153.47C81.9832 153.722 81.6881 153.923 81.3625 154.059C81.0369 154.196 80.6873 154.266 80.3342 154.266H80.3873Z" fill="#7F66FF"/>
<path d="M103.155 151.319C104.235 163.646 95.1116 173.637 82.8024 173.637H81.8467C93.5807 173.035 102.102 163.283 101.058 151.346C100.455 145.503 97.8051 140.061 93.5768 135.983C89.3485 131.906 83.8143 129.455 77.9531 129.064C78.2628 129.064 78.5814 129.064 78.9 129.064C91.2445 129.011 102.111 139.001 103.155 151.319Z" fill="#7F66FF"/>
<g opacity="0.4">
<path d="M103.155 151.319C104.235 163.646 95.1116 173.637 82.8024 173.637H81.8467C93.5807 173.035 102.102 163.283 101.058 151.346C100.455 145.503 97.8051 140.061 93.5768 135.983C89.3485 131.906 83.8143 129.455 77.9531 129.064C78.2628 129.064 78.5814 129.064 78.9 129.064C91.2445 129.011 102.111 139.001 103.155 151.319Z" fill="#EAE5FF"/>
</g>
<path d="M121.225 42.555C121.247 42.8192 121.282 43.0821 121.331 43.3426C121.665 45.0476 122.54 46.5994 123.826 47.7672C125.284 49.132 127.201 49.8994 129.198 49.9175H203.964C204.837 49.9351 205.704 49.779 206.516 49.4583C207.328 49.1375 208.068 48.6585 208.693 48.0491C209.318 47.4398 209.815 46.7122 210.157 45.9088C210.498 45.1053 210.676 44.242 210.68 43.3692C210.694 43.1068 210.694 42.8439 210.68 42.5816C210.472 40.6003 209.548 38.763 208.082 37.4141C206.616 36.0653 204.708 35.2974 202.716 35.2545H127.932C126.995 35.2356 126.064 35.4163 125.202 35.7847C124.34 36.153 123.566 36.7006 122.931 37.3911C122.297 38.0816 121.816 38.8991 121.522 39.7895C121.228 40.6798 121.127 41.6225 121.225 42.555Z" fill="#7F66FF"/>
<path opacity="0.8" d="M121.225 42.555C121.247 42.8192 121.282 43.0821 121.331 43.3426C121.665 45.0476 122.54 46.5994 123.826 47.7672C125.284 49.132 127.201 49.8994 129.198 49.9175H203.964C204.837 49.9351 205.704 49.779 206.516 49.4583C207.328 49.1375 208.068 48.6585 208.693 48.0491C209.318 47.4398 209.815 46.7122 210.157 45.9088C210.498 45.1053 210.676 44.242 210.68 43.3692C210.694 43.1068 210.694 42.8439 210.68 42.5816C210.472 40.6003 209.548 38.763 208.082 37.4141C206.616 36.0653 204.708 35.2974 202.716 35.2545H127.932C126.995 35.2356 126.064 35.4163 125.202 35.7847C124.34 36.153 123.566 36.7006 122.931 37.3911C122.297 38.0816 121.816 38.8991 121.522 39.7895C121.228 40.6798 121.127 41.6225 121.225 42.555Z" fill="#EAE5FF"/>
<path d="M210.681 43.3161C210.681 43.5531 210.663 43.7897 210.628 44.024C210.364 42.0875 209.416 40.3094 207.955 39.011C206.495 37.7126 204.618 36.9797 202.663 36.9447L123.172 37.1217C123.802 36.5087 124.547 36.0259 125.364 35.701C126.181 35.3761 127.054 35.2153 127.933 35.228H202.699C204.691 35.2709 206.598 36.0387 208.065 37.3876C209.531 38.7365 210.455 40.5737 210.663 42.5551C210.681 42.8083 210.687 43.0623 210.681 43.3161Z" fill="#7F66FF"/>
<path opacity="0.5" d="M210.681 43.3161C210.681 43.5531 210.663 43.7897 210.628 44.024C210.364 42.0875 209.416 40.3094 207.955 39.011C206.495 37.7126 204.618 36.9797 202.663 36.9447L123.172 37.1217C123.802 36.5087 124.547 36.0259 125.364 35.701C126.181 35.3761 127.054 35.2153 127.933 35.228H202.699C204.691 35.2709 206.598 36.0387 208.065 37.3876C209.531 38.7365 210.455 40.5737 210.663 42.5551C210.681 42.8083 210.687 43.0623 210.681 43.3161Z" fill="#EAE5FF"/>
<path d="M197.84 38.7676L198.158 42.3073L201.486 41.0684L202.273 42.8382L198.875 43.9709L201.317 46.9708L199.787 48.0946L197.406 44.9797L195.636 48.0946L193.964 46.9708L195.849 43.9709L192.309 42.8382L192.787 41.0684L196.371 42.263L196.052 38.7234L197.84 38.7676Z" fill="#7F66FF"/>
<path d="M177.354 38.7675L177.673 42.3071L181 41.0682L181.797 42.838L178.372 43.9973L180.814 46.9971L179.292 48.121L176.912 45.0061L175.142 48.121L173.461 46.9971L175.355 43.9973L171.815 42.8646L172.293 41.0948L175.877 42.2894L175.567 38.7498L177.354 38.7675Z" fill="#7F66FF"/>
<path d="M156.913 38.7675L157.223 42.3071L160.55 41.0682L161.347 42.838L157.94 43.9707L160.382 46.9706L158.904 48.121L156.524 45.0061L154.754 48.121L153.082 46.9971L154.966 43.9973L151.427 42.8646L151.913 41.0948L155.453 42.2894L155.143 38.7498L156.913 38.7675Z" fill="#7F66FF"/>
<path d="M136.463 38.7676L136.773 42.3073L140.109 41.0684L140.897 42.8382L137.49 43.9709L139.941 46.9708L138.41 48.0946L136.03 44.9797L134.26 48.0946L132.587 46.9708L134.472 43.9709L130.933 42.8382L131.41 41.0684L134.95 42.263L134.64 38.7234L136.463 38.7676Z" fill="#7F66FF"/>
<path d="M186.027 31.759H182.541V32.6439H186.027V31.759Z" fill="#7F66FF"/>
<path d="M201.008 31.759H189.637V32.6439H201.008V31.759Z" fill="#7F66FF"/>
<path opacity="0.8" d="M317.118 64.7664L313.499 106.145C313.359 107.466 312.743 108.69 311.766 109.589C310.789 110.488 309.517 111 308.189 111.03H279.456C278.834 111.033 278.219 110.905 277.65 110.655C277.081 110.404 276.571 110.036 276.153 109.575C275.736 109.115 275.42 108.571 275.227 107.98C275.034 107.389 274.967 106.763 275.032 106.145L278.651 64.7576C278.785 63.4348 279.4 62.207 280.378 61.3068C281.357 60.4066 282.631 59.8964 283.961 59.8729H312.694C313.316 59.8694 313.933 59.9973 314.503 60.2484C315.072 60.4995 315.583 60.8681 316.001 61.33C316.418 61.7919 316.734 62.3367 316.926 62.9289C317.119 63.5211 317.184 64.1472 317.118 64.7664Z" fill="#7F66FF"/>
<path opacity="0.8" d="M317.118 64.7664L313.499 106.145C313.359 107.466 312.743 108.69 311.766 109.589C310.789 110.488 309.517 111 308.189 111.03H279.456C278.834 111.033 278.219 110.905 277.65 110.655C277.081 110.404 276.571 110.036 276.153 109.575C275.736 109.115 275.42 108.571 275.227 107.98C275.034 107.389 274.967 106.763 275.032 106.145L278.651 64.7576C278.785 63.4348 279.4 62.207 280.378 61.3068C281.357 60.4066 282.631 59.8964 283.961 59.8729H312.694C313.316 59.8694 313.933 59.9973 314.503 60.2484C315.072 60.4995 315.583 60.8681 316.001 61.33C316.418 61.7919 316.734 62.3367 316.926 62.9289C317.119 63.5211 317.184 64.1472 317.118 64.7664Z" fill="#F2F2F2"/>
<path d="M281.271 71.4388H281.191C280.958 71.4185 280.742 71.3065 280.591 71.1274C280.44 70.9482 280.366 70.7165 280.386 70.4831L280.722 66.6957C280.742 66.475 280.844 66.2699 281.008 66.1208C281.172 65.9717 281.386 65.8895 281.607 65.8904H285.607C285.842 65.8904 286.067 65.9836 286.233 66.1496C286.399 66.3155 286.492 66.5406 286.492 66.7753C286.492 67.01 286.399 67.2351 286.233 67.401C286.067 67.567 285.842 67.6602 285.607 67.6602H282.421L282.156 70.6335C282.136 70.8541 282.034 71.0593 281.87 71.2084C281.706 71.3575 281.492 71.4397 281.271 71.4388Z" fill="#7F66FF"/>
<path d="M313.446 71.4388H313.366C313.133 71.4185 312.917 71.3065 312.766 71.1274C312.615 70.9482 312.541 70.7165 312.561 70.4831L312.809 67.6602H309.782C309.548 67.6602 309.323 67.567 309.157 67.401C308.991 67.2351 308.897 67.01 308.897 66.7753C308.897 66.5406 308.991 66.3155 309.157 66.1496C309.323 65.9836 309.548 65.8904 309.782 65.8904H313.764C313.888 65.8899 314.01 65.9151 314.123 65.9645C314.235 66.0139 314.337 66.0863 314.42 66.1771C314.503 66.2679 314.567 66.3751 314.606 66.4918C314.646 66.6085 314.66 66.7322 314.649 66.855L314.313 70.6335C314.293 70.8511 314.194 71.0538 314.034 71.2024C313.874 71.3511 313.664 71.4353 313.446 71.4388Z" fill="#7F66FF"/>
<path d="M282.792 99.9947H278.792C278.671 99.9944 278.551 99.969 278.44 99.9203C278.329 99.8716 278.229 99.8005 278.146 99.7116C278.064 99.6215 278 99.5152 277.961 99.3994C277.921 99.2837 277.906 99.1609 277.916 99.039L278.244 95.2516C278.264 95.0169 278.376 94.7998 278.556 94.6479C278.736 94.4961 278.969 94.422 279.204 94.4419C279.438 94.4619 279.656 94.5742 279.807 94.7543C279.959 94.9343 280.033 95.1674 280.013 95.402L279.766 98.2249H282.792C283.027 98.2249 283.252 98.3181 283.418 98.4841C283.584 98.6501 283.677 98.8751 283.677 99.1098C283.677 99.3445 283.584 99.5696 283.418 99.7356C283.252 99.9015 283.027 99.9947 282.792 99.9947Z" fill="#7F66FF"/>
<path d="M310.942 99.9949H306.951C306.717 99.9949 306.492 99.9016 306.326 99.7357C306.16 99.5697 306.066 99.3446 306.066 99.11C306.066 98.8753 306.16 98.6502 306.326 98.4842C306.492 98.3183 306.717 98.225 306.951 98.225H310.137L310.394 95.2517C310.414 95.0183 310.526 94.8025 310.705 94.6516C310.884 94.5006 311.116 94.4269 311.349 94.4465C311.583 94.4667 311.799 94.5787 311.95 94.7579C312.1 94.937 312.174 95.1687 312.155 95.4022L311.827 99.1896C311.807 99.4102 311.705 99.6153 311.541 99.7644C311.378 99.9135 311.164 99.9958 310.942 99.9949Z" fill="#7F66FF"/>
<path d="M307.896 85.7272C309.894 77.9802 306.464 70.3981 300.237 68.7921C294.009 67.1861 287.341 72.1644 285.343 79.9114C283.345 87.6583 286.774 95.2404 293.002 96.8464C299.23 98.4524 305.898 93.4741 307.896 85.7272Z" fill="#F2F2F2"/>
<path d="M300.092 104.844H288.633L289.633 93.3845H301.092L300.092 104.844Z" fill="#F2F2F2"/>
<path d="M313.499 106.145C313.359 107.465 312.743 108.69 311.766 109.589C310.789 110.488 309.517 111 308.189 111.03H279.456C278.834 111.033 278.219 110.905 277.65 110.655C277.081 110.404 276.571 110.036 276.153 109.575C275.736 109.114 275.42 108.571 275.227 107.98C275.034 107.389 274.967 106.763 275.032 106.145C275.032 106.145 288.235 101.968 289.863 101.968H300.066L313.499 106.145Z" fill="#F2F2F2"/>
<path d="M318.787 76.8592L317.448 93.113L318.33 93.1857L319.669 76.9319L318.787 76.8592Z" fill="#7F66FF"/>
<path d="M319.718 69.4215L319.455 72.614L320.337 72.6867L320.6 69.4941L319.718 69.4215Z" fill="#7F66FF"/>
<path d="M288.88 168.15H285.394V169.035H288.88V168.15Z" fill="#7F66FF"/>
<path d="M303.862 168.15H292.491V169.035H303.862V168.15Z" fill="#7F66FF"/>
<path d="M324.675 153.045L322.472 178.265C322.357 179.38 321.839 180.414 321.014 181.172C320.189 181.93 319.115 182.36 317.994 182.38C317.467 182.389 316.944 182.286 316.46 182.078C315.975 181.869 315.541 181.56 315.185 181.171C314.829 180.782 314.561 180.322 314.397 179.82C314.232 179.319 314.177 178.789 314.233 178.265L316.419 153.045C316.623 151.164 316.424 149.261 315.836 147.463C315.248 145.665 314.284 144.012 313.009 142.614C311.734 141.217 310.176 140.106 308.439 139.357C306.701 138.607 304.825 138.236 302.933 138.267H293.942C289.921 138.343 286.067 139.888 283.107 142.61C280.146 145.333 278.284 149.044 277.872 153.045L276.987 163.345H268.758L269.643 153.045C270.749 140.355 281.978 130.037 294.659 130.037H303.685C306.63 129.989 309.552 130.567 312.256 131.734C314.961 132.901 317.386 134.63 319.371 136.806C321.356 138.982 322.856 141.555 323.77 144.355C324.685 147.154 324.993 150.117 324.675 153.045Z" fill="#7F66FF"/>
<g opacity="0.5">
<path d="M324.676 153.045L322.472 178.265C322.358 179.38 321.839 180.414 321.014 181.172C320.189 181.93 319.115 182.36 317.995 182.38C317.468 182.389 316.944 182.286 316.46 182.078C315.976 181.869 315.541 181.56 315.186 181.171C314.83 180.782 314.561 180.322 314.397 179.82C314.233 179.319 314.177 178.789 314.234 178.265L316.42 153.045C316.623 151.164 316.424 149.261 315.836 147.463C315.248 145.665 314.285 144.012 313.01 142.614C311.734 141.217 310.176 140.106 308.439 139.357C306.702 138.607 304.825 138.236 302.934 138.267H293.943C289.922 138.343 286.067 139.888 283.107 142.61C280.147 145.333 278.285 149.044 277.873 153.045L276.988 163.345H268.758L269.643 153.045C270.749 140.355 281.979 130.037 294.66 130.037H303.686C306.631 129.989 309.552 130.567 312.257 131.734C314.961 132.901 317.386 134.63 319.371 136.806C321.357 138.982 322.856 141.555 323.771 144.355C324.685 147.154 324.994 150.117 324.676 153.045Z" fill="#EAE5FF"/>
</g>
<path d="M325.268 177.345L320.976 226.493C320.82 228.016 320.111 229.43 318.982 230.466C317.853 231.502 316.384 232.087 314.852 232.112H265.704C264.984 232.125 264.27 231.984 263.609 231.7C262.947 231.415 262.354 230.993 261.869 230.462C261.383 229.93 261.016 229.301 260.793 228.617C260.569 227.932 260.494 227.208 260.572 226.493L264.873 177.345C264.971 176.365 265.3 175.422 265.832 174.593C266.364 173.764 267.085 173.073 267.934 172.575C268.857 172.01 269.915 171.704 270.996 171.69H320.135C321.139 171.684 322.124 171.964 322.976 172.495C323.771 173.011 324.406 173.738 324.811 174.594C325.216 175.451 325.374 176.403 325.268 177.345Z" fill="#7F66FF"/>
<path d="M274.164 198.813L286.933 218.466L329.046 176.353C329.111 176.275 329.146 176.177 329.145 176.075C329.143 175.973 329.105 175.876 329.038 175.8C328.97 175.724 328.878 175.674 328.777 175.661C328.676 175.647 328.574 175.67 328.489 175.725L288.358 207.184L280.774 194.963L274.164 198.813Z" fill="#F2F2F2"/>
<path d="M73.0688 103.764H41.0527C39.5714 103.737 38.1511 103.169 37.0604 102.166C35.9696 101.163 35.2838 99.796 35.1327 98.3221L32.3629 66.3237C32.286 65.6308 32.3578 64.9295 32.5735 64.2665C32.7891 63.6035 33.1437 62.9942 33.6135 62.4792C34.0834 61.9641 34.6576 61.5552 35.298 61.2797C35.9384 61.0042 36.6302 60.8684 37.3273 60.8815H69.308C70.7838 60.915 72.1964 61.4867 73.2802 62.4889C74.364 63.4912 75.0441 64.855 75.1926 66.3237L77.9889 98.3044C78.068 98.9949 77.9994 99.6943 77.7875 100.356C77.5757 101.018 77.2255 101.628 76.7602 102.144C76.295 102.66 75.7252 103.072 75.0888 103.351C74.4524 103.63 73.7638 103.771 73.0688 103.764Z" fill="#7F66FF"/>
<path opacity="0.8" d="M73.0688 103.764H41.0527C39.5714 103.737 38.1511 103.169 37.0604 102.166C35.9696 101.163 35.2838 99.796 35.1327 98.3221L32.3629 66.3237C32.286 65.6308 32.3578 64.9295 32.5735 64.2665C32.7891 63.6035 33.1437 62.9942 33.6135 62.4792C34.0834 61.9641 34.6576 61.5552 35.298 61.2797C35.9384 61.0042 36.6302 60.8684 37.3273 60.8815H69.308C70.7838 60.915 72.1964 61.4867 73.2802 62.4889C74.364 63.4912 75.0441 64.855 75.1926 66.3237L77.9889 98.3044C78.068 98.9949 77.9994 99.6943 77.7875 100.356C77.5757 101.018 77.2255 101.628 76.7602 102.144C76.295 102.66 75.7252 103.072 75.0888 103.351C74.4524 103.63 73.7638 103.771 73.0688 103.764Z" fill="#EAE5FF"/>
<path d="M35.1494 85.5528C35.1494 85.5528 46.5205 69.7218 54.8918 70.1288C63.2631 70.5359 77.1739 85.1723 77.1739 85.1723C77.1739 85.1723 56.6705 95.9417 35.1494 85.5528Z" fill="#F2F2F2"/>
<path d="M35.5127 85.7918L34.7959 85.2786C35.2561 84.6326 46.0962 69.6599 54.5737 69.6599H54.9188C63.3785 70.067 76.9177 84.2432 77.4929 84.845L76.8557 85.4556C76.7141 85.314 62.9803 70.9342 54.8745 70.5448H54.5737C46.521 70.5625 35.6189 85.6591 35.5127 85.7918Z" fill="#080033"/>
<path d="M33.9728 86.1105C32.2561 86.1105 30.0261 85.4733 29.2385 83.0487C29.2022 82.9372 29.2117 82.8159 29.2648 82.7114C29.3179 82.6068 29.4103 82.5276 29.5217 82.4912C29.5768 82.472 29.6353 82.4641 29.6936 82.468C29.7518 82.472 29.8087 82.4876 29.8608 82.5141C29.9128 82.5405 29.959 82.5772 29.9965 82.6219C30.0341 82.6666 30.0622 82.7185 30.0792 82.7744C31.0968 85.9069 34.902 85.1548 35.0612 85.1194C35.176 85.0983 35.2945 85.1224 35.3918 85.1867C35.4892 85.2511 35.5578 85.3506 35.5833 85.4645C35.595 85.5214 35.5953 85.5801 35.5842 85.6372C35.5732 85.6942 35.551 85.7486 35.5189 85.797C35.4869 85.8455 35.4456 85.8872 35.3974 85.9197C35.3493 85.9523 35.2952 85.975 35.2382 85.9866C34.8215 86.0691 34.3976 86.1106 33.9728 86.1105Z" fill="#080033"/>
<path d="M40.7241 79.3142C40.6253 79.3161 40.5287 79.285 40.4497 79.2257C40.317 79.1195 37.1756 76.6949 36.3792 74.2259C36.3429 74.1145 36.3523 73.9932 36.4054 73.8886C36.4585 73.7841 36.5509 73.7049 36.6623 73.6685C36.7738 73.6345 36.8941 73.6451 36.9981 73.6979C37.102 73.7506 37.1814 73.8416 37.2198 73.9516C37.9366 76.1551 40.9541 78.5001 40.9895 78.5178C41.0821 78.5895 41.1424 78.6949 41.1573 78.811C41.1722 78.9271 41.1405 79.0444 41.0692 79.1372C41.0289 79.191 40.9769 79.2349 40.9171 79.2655C40.8573 79.2962 40.7913 79.3128 40.7241 79.3142Z" fill="#080033"/>
<path d="M47.2206 73.2881C47.1047 73.2814 46.9957 73.2312 46.9153 73.1475C46.8348 73.0638 46.789 72.9528 46.787 72.8368C46.2702 70.9094 45.6288 69.0176 44.8667 67.1733C44.6455 66.5893 44.4862 66.1645 44.4508 66.0583C44.4332 66.002 44.427 65.9427 44.4327 65.8839C44.4384 65.8252 44.4557 65.7681 44.4838 65.7162C44.5118 65.6642 44.5499 65.6184 44.596 65.5814C44.642 65.5444 44.6949 65.5171 44.7517 65.5009C44.8075 65.4846 44.8659 65.4795 44.9237 65.4858C44.9814 65.4921 45.0374 65.5097 45.0883 65.5377C45.1393 65.5656 45.1842 65.6033 45.2206 65.6486C45.257 65.6939 45.2841 65.7459 45.3003 65.8017C45.3003 65.9079 45.4862 66.2973 45.6897 66.8548C46.9286 70.1024 47.6896 72.235 47.6719 72.8545C47.672 72.9129 47.6602 72.9708 47.6373 73.0246C47.6144 73.0784 47.5809 73.127 47.5387 73.1675C47.4965 73.208 47.4466 73.2396 47.392 73.2603C47.3373 73.281 47.279 73.2905 47.2206 73.2881Z" fill="#080033"/>
<path d="M54.8918 70.5713C54.7815 70.5677 54.6761 70.5247 54.5949 70.45C54.5137 70.3752 54.462 70.2738 54.4493 70.1642L53.8299 63.0849C53.8194 62.9675 53.8558 62.8508 53.9313 62.7604C54.0069 62.6699 54.1152 62.6132 54.2325 62.6026C54.3499 62.5921 54.4666 62.6285 54.5571 62.7041C54.6475 62.7796 54.7043 62.8879 54.7148 63.0053L55.3343 70.1376C55.3418 70.2532 55.3047 70.3672 55.2306 70.4561C55.1565 70.5451 55.0511 70.6021 54.9361 70.6155L54.8918 70.5713Z" fill="#080033"/>
<path d="M78.5015 85.6236C78.0686 85.6258 77.6363 85.5902 77.2095 85.5175C77.1526 85.5059 77.0985 85.4831 77.0503 85.4506C77.0022 85.4181 76.9609 85.3764 76.9288 85.3279C76.8968 85.2794 76.8746 85.2251 76.8635 85.168C76.8525 85.111 76.8528 85.0523 76.8644 84.9954C76.8738 84.9382 76.8949 84.8836 76.9262 84.8348C76.9575 84.7861 76.9984 84.7443 77.0465 84.712C77.0946 84.6796 77.1488 84.6575 77.2057 84.6469C77.2627 84.6363 77.3212 84.6374 77.3777 84.6503C77.3777 84.6503 79.5457 85.0662 80.8731 84.1281C81.1571 83.9215 81.3938 83.6568 81.5678 83.3517C81.7417 83.0466 81.8488 82.708 81.8819 82.3583C81.8906 82.3002 81.9107 82.2444 81.9409 82.1941C81.9712 82.1437 82.0111 82.0998 82.0584 82.0649C82.1056 82.03 82.1593 82.0047 82.2163 81.9905C82.2733 81.9763 82.3326 81.9735 82.3907 81.9822C82.4488 81.991 82.5046 82.011 82.555 82.0413C82.6053 82.0716 82.6492 82.1115 82.6841 82.1588C82.719 82.206 82.7443 82.2597 82.7585 82.3167C82.7727 82.3737 82.7755 82.433 82.7668 82.4911C82.7133 82.9567 82.5628 83.406 82.3251 83.8099C82.0873 84.2138 81.7675 84.5634 81.3863 84.8361C80.5264 85.3842 79.5206 85.6588 78.5015 85.6236Z" fill="#080033"/>
<path d="M70.555 78.8453C70.4927 78.8458 70.4311 78.8326 70.3745 78.8066C70.3179 78.7806 70.2678 78.7425 70.2276 78.6949C70.1861 78.6538 70.1532 78.6049 70.1307 78.5509C70.1083 78.497 70.0967 78.4392 70.0967 78.3808C70.0967 78.3224 70.1083 78.2645 70.1307 78.2106C70.1532 78.1567 70.1861 78.1078 70.2276 78.0666C70.2276 78.0666 72.8823 75.7305 73.1655 73.5536C73.1851 73.4384 73.2486 73.3353 73.3427 73.266C73.4367 73.1966 73.554 73.1665 73.6699 73.1819C73.7274 73.1906 73.7827 73.2105 73.8326 73.2405C73.8824 73.2706 73.9258 73.3102 73.9604 73.357C73.9949 73.4039 74.0198 73.4571 74.0337 73.5136C74.0477 73.5701 74.0503 73.6288 74.0415 73.6863C73.6699 76.1818 70.9266 78.6241 70.8116 78.7303C70.7424 78.7979 70.6515 78.8387 70.555 78.8453Z" fill="#080033"/>
<path d="M63.0777 73.7039H62.9981C62.8828 73.6823 62.7804 73.6166 62.7127 73.5208C62.6449 73.425 62.6172 73.3066 62.6353 73.1906C62.6353 73.1375 63.6087 67.4476 63.7857 66.2795C63.7944 66.2214 63.8145 66.1656 63.8448 66.1152C63.875 66.0649 63.915 66.021 63.9622 65.986C64.0094 65.9511 64.0631 65.9259 64.1201 65.9117C64.1771 65.8975 64.2364 65.8947 64.2945 65.9034C64.3526 65.9121 64.4084 65.9322 64.4588 65.9625C64.5091 65.9928 64.553 66.0327 64.5879 66.0799C64.6229 66.1272 64.6481 66.1808 64.6623 66.2378C64.6765 66.2949 64.6793 66.3541 64.6706 66.4122C64.4936 67.5892 63.5291 73.288 63.5202 73.3411C63.5014 73.4441 63.4465 73.5372 63.3655 73.6036C63.2845 73.6701 63.1825 73.7056 63.0777 73.7039Z" fill="#080033"/>
<path d="M63.3376 87.4067C67.0011 83.5798 66.5824 77.2337 62.4024 73.2322C58.2225 69.2308 51.8641 69.0893 48.2007 72.9162C44.5372 76.7431 44.9559 83.0893 49.1359 87.0907C53.3158 91.0921 59.6741 91.2336 63.3376 87.4067Z" fill="#7F66FF"/>
<path opacity="0.3" d="M59.9184 80.1549C59.9316 79.9309 59.9316 79.7064 59.9184 79.4824C59.7996 78.3287 59.2621 77.2585 58.4077 76.4742C57.5533 75.6899 56.4411 75.2458 55.2815 75.226C54.7364 75.2165 54.1956 75.3231 53.695 75.5388C53.1944 75.7545 52.7454 76.0743 52.3779 76.4769C52.0104 76.8795 51.7329 77.3558 51.5637 77.874C51.3945 78.3922 51.3376 78.9405 51.3967 79.4824C51.4114 79.7107 51.4529 79.9364 51.5206 80.1549H45.751C45.6099 78.8789 45.7425 77.5875 46.1397 76.3667C46.5369 75.1459 47.1898 74.0238 48.0547 73.0751C48.9197 72.1265 49.9768 71.373 51.1558 70.865C52.3348 70.357 53.6085 70.106 54.8921 70.1289C57.6214 70.1793 60.2379 71.2268 62.248 73.0738C64.258 74.9208 65.5226 77.4396 65.8031 80.1549H59.9184Z" fill="#080033"/>
<path opacity="0.7" d="M59.9096 79.4823C59.9229 79.7063 59.9229 79.9309 59.9096 80.1549C59.846 81.1399 59.4047 82.0624 58.6777 82.73C57.9507 83.3977 56.9941 83.7591 56.0072 83.7388C54.9669 83.7193 53.962 83.3578 53.1479 82.71C52.3337 82.0622 51.7556 81.1642 51.503 80.1549C51.4353 79.9364 51.3937 79.7106 51.3791 79.4823C51.32 78.9404 51.3769 78.3922 51.5461 77.874C51.7153 77.3558 51.9928 76.8795 52.3603 76.4769C52.7278 76.0742 53.1767 75.7545 53.6774 75.5388C54.178 75.3231 54.7188 75.2164 55.2639 75.2259C56.425 75.2436 57.5394 75.6867 58.3956 76.4712C59.2519 77.2558 59.7906 78.3271 59.9096 79.4823Z" fill="#080033"/>
<path opacity="0.7" d="M62.2196 75.3057C62.2674 75.7474 62.2206 76.1942 62.0824 76.6165C61.9443 77.0388 61.7179 77.4268 61.4183 77.7549C61.1187 78.083 60.7527 78.3435 60.3446 78.5193C59.9366 78.6951 59.4958 78.7821 59.0516 78.7745C58.1083 78.7558 57.2043 78.3928 56.51 77.7539C55.8156 77.115 55.3789 76.2442 55.2819 75.3057C55.2327 74.8637 55.2784 74.4163 55.416 73.9934C55.5536 73.5704 55.7799 73.1818 56.0799 72.8534C56.3798 72.525 56.7463 72.2644 57.1551 72.0891C57.5638 71.9138 58.0052 71.8278 58.4499 71.8368C59.3938 71.8537 60.2988 72.216 60.9935 72.8553C61.6883 73.4946 62.1245 74.3664 62.2196 75.3057Z" fill="#EAE5FF"/>
<path d="M48.5207 56.926H45.0342V57.8109H48.5207V56.926Z" fill="#7F66FF"/>
<path d="M63.503 56.926H52.1318V57.8109H63.503V56.926Z" fill="#7F66FF"/>
<path d="M209.344 121.763L209.645 122.126L210.052 122.595C210.344 122.905 210.628 123.232 210.937 123.533C211.548 124.17 212.212 124.79 212.884 125.418C214.228 126.657 215.637 127.824 217.105 128.914C218.601 130.029 220.176 131.046 221.751 132.055C222.636 132.533 223.361 133.037 224.193 133.497L226.114 134.559C226.393 134.682 226.707 134.701 226.998 134.612C227.618 134.427 231.175 130.905 232.308 129.595C234.821 126.719 238.626 122.932 240.679 119.71L242.971 122.87C241.522 126.816 239.6 130.572 237.246 134.055C235.98 135.938 234.461 137.638 232.733 139.108C231.695 139.982 230.524 140.684 229.264 141.187C227.667 141.825 225.912 141.957 224.238 141.568C223.804 141.462 223.381 141.32 222.972 141.143L222.176 140.798L220.742 140.143C219.778 139.718 218.848 139.205 217.91 138.736C216.035 137.735 214.215 136.633 212.459 135.435C210.689 134.218 208.99 132.9 207.371 131.489C206.53 130.754 205.778 130.011 205.008 129.206C204.628 128.807 204.239 128.391 203.867 127.958L203.318 127.285C203.115 127.038 202.964 126.852 202.69 126.471L209.344 121.763Z" fill="#FFB573"/>
<path d="M240.315 120.197L244.421 111.419L248.342 118.445C248.342 118.445 245.766 122.87 242.97 122.87L240.315 120.197Z" fill="#FFB573"/>
<path d="M249.076 107.773L253.218 113.1L248.377 118.436L244.457 111.419L249.076 107.773Z" fill="#FFB573"/>
<path d="M247.634 120.861H254.156C254.34 120.859 254.517 120.79 254.652 120.666C254.788 120.541 254.873 120.371 254.89 120.188L256.244 104.552C256.254 104.45 256.243 104.346 256.21 104.249C256.178 104.152 256.125 104.062 256.056 103.986C255.987 103.91 255.902 103.85 255.808 103.808C255.714 103.767 255.613 103.746 255.51 103.747H248.997C248.812 103.748 248.633 103.819 248.498 103.945C248.362 104.071 248.278 104.243 248.262 104.428L246.891 120.056C246.882 120.158 246.895 120.262 246.929 120.359C246.962 120.456 247.015 120.546 247.085 120.622C247.155 120.697 247.24 120.758 247.335 120.799C247.429 120.84 247.531 120.861 247.634 120.861Z" fill="#7F66FF"/>
<path opacity="0.3" d="M247.706 119.295H254.236L255.457 105.322H248.927L247.706 119.295Z" fill="#EAE5FF"/>
<path d="M247.28 117.312L248.439 116.72C249.029 116.42 249.574 116.038 250.058 115.587L250.271 114.817C250.147 114.612 249.961 114.452 249.739 114.361C249.518 114.271 249.273 114.253 249.041 114.313L248.076 114.578L243.289 114.941L243.174 116.959L244.572 119.118H245.05C245.577 119.136 246.093 118.964 246.502 118.632C246.912 118.3 247.188 117.832 247.28 117.312Z" fill="#FFB573"/>
<path d="M200.99 113.224C204.308 112.622 227.714 132.913 227.714 132.913L220.777 143.09C220.777 143.09 195.185 125.268 195.999 120.967C196.787 116.445 196.158 114.109 200.99 113.224Z" fill="#414681"/>
<path opacity="0.2" d="M203.946 119.71L203.689 130.329C206.344 132.391 215.937 139.745 215.937 139.745L203.946 119.71Z" fill="#080033"/>
<path d="M185.389 324.107L193.238 324.877L195.734 306.674L187.876 305.905L185.389 324.107Z" fill="#FFB573"/>
<path d="M108.11 217.298L106.102 224.944L123.083 232.262L126.605 224.502L108.11 217.298Z" fill="#FFB573"/>
<path d="M198.858 326.488C199.534 326.571 200.217 326.421 200.796 326.063C200.921 325.954 201.018 325.817 201.08 325.663C201.141 325.509 201.165 325.343 201.15 325.178C201.15 325.075 201.122 324.973 201.069 324.884C201.016 324.796 200.94 324.723 200.849 324.674C199.902 324.107 196.699 325.629 196.336 325.797C196.301 325.814 196.272 325.84 196.253 325.873C196.234 325.907 196.226 325.945 196.23 325.983C196.235 326.022 196.252 326.059 196.279 326.087C196.306 326.116 196.342 326.135 196.38 326.142C197.194 326.333 198.023 326.448 198.858 326.488ZM200.283 324.904C200.406 324.894 200.529 324.922 200.637 324.983C200.674 325.003 200.705 325.032 200.727 325.068C200.749 325.104 200.76 325.145 200.761 325.187C200.77 325.297 200.753 325.409 200.712 325.512C200.67 325.615 200.605 325.706 200.522 325.78C200.035 326.196 198.752 326.231 196.982 325.895C198.026 325.373 199.151 325.035 200.309 324.895L200.283 324.904Z" fill="#7F66FF"/>
<path d="M196.416 326.107H196.486C197.442 325.709 199.362 324.063 199.238 323.16C199.204 323.004 199.116 322.863 198.991 322.764C198.865 322.664 198.709 322.61 198.548 322.612C198.364 322.577 198.174 322.583 197.993 322.629C197.811 322.675 197.641 322.76 197.495 322.877C196.478 323.665 196.239 325.797 196.221 325.877C196.213 325.909 196.212 325.943 196.22 325.975C196.228 326.008 196.243 326.038 196.265 326.063C196.286 326.08 196.31 326.093 196.336 326.101C196.362 326.108 196.389 326.111 196.416 326.107ZM198.371 322.948H198.477C198.823 323.001 198.84 323.134 198.84 323.178C198.92 323.718 197.61 325.028 196.628 325.55C196.722 324.653 197.1 323.809 197.708 323.143C197.904 323.001 198.149 322.94 198.389 322.975L198.371 322.948Z" fill="#7F66FF"/>
<path d="M192.849 321.709L185.77 322.01C185.618 322.012 185.471 322.069 185.358 322.172C185.246 322.275 185.175 322.416 185.16 322.568L183.461 332.452C183.451 332.62 183.475 332.789 183.531 332.947C183.587 333.106 183.673 333.252 183.786 333.377C183.899 333.502 184.035 333.604 184.188 333.676C184.34 333.748 184.505 333.789 184.673 333.797H184.814C187.903 333.638 189.389 333.408 193.301 333.275C195.699 333.195 203.035 334.063 206.309 333.319C209.583 332.576 208.964 329.328 207.557 329.355C203.008 329.443 197.761 326.479 195.168 323.01C194.717 322.718 193.345 321.683 192.849 321.709Z" fill="#414681"/>
<path d="M109.712 225.944L113.322 219.812C113.404 219.682 113.434 219.526 113.406 219.375C113.378 219.224 113.295 219.09 113.172 218.998L105.809 212.21C105.536 212.017 105.197 211.939 104.867 211.992C104.536 212.045 104.239 212.225 104.04 212.494L103.96 212.617C102.42 215.272 101.81 216.67 99.8008 220.024C98.5619 222.086 93.8365 227.811 92.7215 230.935C91.6065 234.059 94.6329 235.36 95.3762 234.138C97.7743 230.263 103.11 227.466 107.446 227.13C107.862 226.971 109.464 226.378 109.712 225.944Z" fill="#414681"/>
<path opacity="0.2" d="M195.734 306.675L194.451 316.064L186.593 315.294L187.867 305.914L195.734 306.675Z" fill="#080033"/>
<path opacity="0.2" d="M131.825 226.395L128.197 234.581L117.26 229.749L120.047 221.953L131.825 226.395Z" fill="#080033"/>
<path d="M206.008 122.56C210.495 130.188 205.008 136.621 200.425 159.416L170.851 159.496C171.329 147.214 171.276 137.285 166.037 113.118C165.901 112.522 165.901 111.904 166.038 111.309C166.174 110.713 166.444 110.157 166.826 109.68C167.208 109.203 167.693 108.819 168.244 108.557C168.796 108.294 169.399 108.159 170.01 108.162C172.452 108.162 175.523 108.242 178.647 108.561C183.574 108.964 188.467 109.706 193.292 110.782C195.909 111.413 198.481 112.217 200.991 113.189C202.513 113.702 204.345 117.843 206.008 122.56Z" fill="#414681"/>
<path d="M201.521 160.956C201.521 160.956 218.131 208.98 217.733 232.077C217.503 245.306 216.503 269.96 212.512 287.295C209.255 301.454 195.982 310.48 195.982 310.48L185.363 309.851C185.363 309.851 179.611 288.26 180.611 279.667C182.602 262.562 188.504 249.713 187.787 234.006C186.655 208.29 179.044 160.558 179.044 160.558L201.521 160.956Z" fill="#7F66FF"/>
<path d="M183.231 312.621L198.23 313.506L199.593 309.002L182.833 307.453L183.231 312.621Z" fill="#414681"/>
<path opacity="0.2" d="M185.124 257.978C185.124 257.978 185.124 257.889 185.213 257.898C194.637 258.783 201.141 245.217 199.592 226.643L194.593 179.3L185.124 257.978Z" fill="#080033"/>
<path d="M194.07 160.558C194.07 160.558 207.273 245.005 179.823 254.509C165.337 259.995 153.152 254.049 138.719 247.66C130.374 243.97 119.95 233.979 119.95 233.979L123.959 223.068C131.168 221.118 138.713 220.738 146.082 221.953C160.152 224.13 160.745 228.147 165.744 225.112C176.257 199.131 158.17 178.592 170.461 160.514L194.07 160.558Z" fill="#7F66FF"/>
<path d="M124.746 220.997L119.384 235.147L123.33 238.165L129.702 221.325L124.746 220.997Z" fill="#414681"/>
<path d="M122.535 144.692C121.198 146.665 114.42 145.329 114.42 145.329L112.978 136.931L121.305 140.267L122.535 144.692Z" fill="#FFB573"/>
<path d="M114.658 136.497L115.95 145.223L110.95 145.966C110.679 145.991 110.409 145.914 110.191 145.75C109.974 145.587 109.825 145.348 109.773 145.081L107.853 138.887C107.82 138.742 107.844 138.591 107.92 138.464C107.996 138.338 108.118 138.245 108.26 138.205L114.658 136.497Z" fill="#FFB573"/>
<path d="M112.419 140.453L115.268 140.957L117.967 138.931L116.923 138.187C116.216 137.683 115.718 136.937 115.525 136.09C115.324 135.203 115.203 134.3 115.162 133.391V133.09C115.128 132.823 115.008 132.575 114.819 132.383C114.631 132.191 114.384 132.067 114.118 132.028L113.41 132.55C112.968 133.515 113.286 134.639 113.233 135.391L113.118 136.851L111.977 137.347L112.419 140.453Z" fill="#FFB573"/>
<path d="M167.461 111.454L150.718 134.462L119.968 140.533V145.577C119.968 145.577 148.869 147.718 155.364 143.939C161.859 140.161 172.753 117.242 172.753 117.242L167.461 111.454Z" fill="#FFB573"/>
<path d="M167.267 67.2087C160.24 64.8548 152.09 69.2174 148.878 75.8897C145.666 82.5619 146.79 90.7473 150.409 97.2072C151.497 99.1628 152.798 101.003 153.692 103.048C154.685 105.074 154.902 107.394 154.303 109.569C153.577 111.684 152.834 113.038 150.214 112.702C150.214 112.702 150.214 111.251 151.214 111.428C151.214 111.428 149.09 112.605 148.259 111.835C149.223 113.321 151.798 112.782 152.621 111.206C153.851 108.861 151.586 105.685 148.931 105.711C146.276 105.738 144.117 108.428 144.206 111.074C144.316 112.397 144.787 113.665 145.567 114.74C146.347 115.814 147.407 116.655 148.63 117.171C147.913 117.289 147.177 117.166 146.536 116.822C145.896 116.478 145.388 115.932 145.091 115.268C146.294 118.419 150.223 119.808 153.542 119.188C156.86 118.569 159.665 116.445 162.267 114.295C165.806 111.392 169.426 107.72 169.346 103.18C169.266 99.7911 167.09 96.8798 165.258 94.0215C163.426 91.1632 161.824 87.6767 162.992 84.4999C163.975 81.8009 166.647 80.1726 169.001 78.5267C170.7 77.3498 174.151 74.7216 173.744 72.235C173.328 69.8634 169.258 67.8724 167.267 67.2087Z" fill="#414681"/>
<path d="M151.435 145.966L146.798 133.692L147.86 133.781C148.719 133.853 149.581 133.676 150.342 133.271C151.103 132.866 151.731 132.25 152.152 131.498C155.691 125.197 164.832 109.207 167.407 108.41C171.08 107.322 174.858 110.26 176.257 114.605C177.31 117.799 166.523 131.498 161.549 139.285C157.134 146.178 151.435 145.966 151.435 145.966Z" fill="#414681"/>
<path d="M106.207 229.979V230.077C106.273 230.247 106.38 230.398 106.519 230.515C106.658 230.633 106.825 230.713 107.004 230.749C107.111 230.783 107.225 230.788 107.335 230.765C107.445 230.742 107.548 230.691 107.632 230.616C108.376 229.935 107.898 227.077 107.853 226.794C107.849 226.757 107.832 226.723 107.807 226.696C107.781 226.669 107.748 226.65 107.712 226.643C107.677 226.639 107.643 226.643 107.61 226.656C107.578 226.668 107.549 226.688 107.526 226.714C106.924 227.564 105.969 229.077 106.207 229.979ZM107.57 227.325C107.73 228.457 107.8 229.979 107.384 230.351C107.341 230.375 107.292 230.388 107.243 230.388C107.193 230.388 107.145 230.375 107.101 230.351C106.982 230.329 106.871 230.276 106.778 230.199C106.685 230.121 106.614 230.021 106.57 229.909C106.411 229.431 106.747 228.457 107.57 227.307V227.325Z" fill="#7F66FF"/>
<path d="M107.579 227.165C107.81 228.121 108.712 229.749 109.509 229.944C109.654 229.973 109.804 229.952 109.936 229.885C110.068 229.817 110.173 229.707 110.234 229.572C110.303 229.446 110.344 229.306 110.353 229.162C110.362 229.018 110.34 228.874 110.287 228.74C109.924 227.643 107.836 226.74 107.748 226.696C107.719 226.681 107.687 226.673 107.655 226.673C107.622 226.673 107.59 226.681 107.562 226.696C107.536 226.717 107.516 226.744 107.503 226.775C107.491 226.806 107.487 226.84 107.491 226.873C107.513 226.973 107.542 227.07 107.579 227.165ZM109.986 228.935C110.004 229.013 110.007 229.094 109.993 229.173C109.979 229.252 109.95 229.328 109.907 229.395C109.792 229.608 109.677 229.608 109.588 229.59C109.048 229.484 108.225 228.147 107.96 227.218C108.641 227.563 109.73 228.209 109.96 228.882C109.954 228.899 109.954 228.918 109.96 228.935H109.986Z" fill="#7F66FF"/>
<path d="M170.744 158.001L169.921 160.877C169.815 161.098 170.072 161.328 170.443 161.319H200.973C201.265 161.319 201.504 161.169 201.521 160.992L201.804 158.116C201.804 157.921 201.574 157.744 201.256 157.753H171.257C171.158 157.745 171.057 157.764 170.967 157.808C170.877 157.851 170.8 157.918 170.744 158.001Z" fill="#7F66FF"/>
<path opacity="0.5" d="M170.744 158.001L169.921 160.877C169.815 161.098 170.072 161.328 170.443 161.319H200.973C201.265 161.319 201.504 161.169 201.521 160.992L201.804 158.116C201.804 157.921 201.574 157.744 201.256 157.753H171.257C171.158 157.745 171.057 157.764 170.967 157.808C170.877 157.851 170.8 157.918 170.744 158.001Z" fill="#EAE5FF"/>
<path d="M176.602 161.584H175.717C175.549 161.584 175.407 161.496 175.425 161.39L175.823 157.647C175.823 157.54 175.991 157.452 176.168 157.452H177.053C177.221 157.452 177.354 157.54 177.345 157.655L176.947 161.39C176.894 161.496 176.735 161.593 176.602 161.584Z" fill="#7F66FF"/>
<path d="M198.61 161.584H197.725C197.565 161.584 197.424 161.496 197.441 161.39L197.84 157.655C197.84 157.54 197.999 157.452 198.167 157.452H199.052C199.22 157.452 199.362 157.54 199.344 157.647L198.946 161.381C198.928 161.496 198.787 161.584 198.61 161.584Z" fill="#7F66FF"/>
<path d="M188.513 161.567H187.628C187.46 161.567 187.319 161.478 187.336 161.372L187.735 157.638C187.735 157.523 187.903 157.434 188.071 157.434H188.956C189.124 157.434 189.257 157.523 189.248 157.629L188.841 161.363C188.841 161.478 188.69 161.567 188.513 161.567Z" fill="#7F66FF"/>
<path d="M180.027 92.4551C180.965 97.2778 181.886 105.985 178.611 108.605C178.611 108.605 179.921 113.551 188.673 114.87C198.336 116.321 193.265 110.817 193.265 110.817C188 108.737 188.133 104.932 189.036 101.428L180.027 92.4551Z" fill="#FFB573"/>
<path d="M178.647 108.561C183.316 108.857 187.958 109.502 192.531 110.49L199.15 112.463C200.327 114.835 198.398 119.711 192.858 120.64C192.858 120.64 178.903 122.56 174.789 108.189L178.647 108.561Z" fill="#FFB573"/>
<path opacity="0.2" d="M183.682 96.1277L188.991 101.437C188.768 102.259 188.622 103.101 188.558 103.95C186.54 103.357 183.301 101.136 183.08 99.0125C183.082 98.02 183.287 97.0384 183.682 96.1277Z" fill="#080033"/>
<path d="M174.115 86.367C176.487 93.8534 177.318 97.0745 182.177 100.021C189.415 104.446 198.105 99.915 198.017 91.88C197.946 84.6415 194.096 73.6155 185.876 72.412C184.069 72.1411 182.222 72.3372 180.512 72.9816C178.803 73.626 177.286 74.6973 176.107 76.0934C174.928 77.4895 174.127 79.1641 173.778 80.9577C173.429 82.7513 173.545 84.6044 174.115 86.3405V86.367Z" fill="#FFB573"/>
<path d="M191.981 85.199C192.818 86.513 193.834 87.7042 194.999 88.7386C194.727 89.0336 194.393 89.2657 194.022 89.4185C193.65 89.5713 193.25 89.6413 192.849 89.6235L191.981 85.199Z" fill="#ED893E"/>
<path d="M191.141 93.6232C191.441 93.5902 191.737 93.531 192.026 93.4462C192.049 93.441 192.07 93.4314 192.089 93.4179C192.108 93.4044 192.124 93.3873 192.137 93.3675C192.149 93.3478 192.157 93.3259 192.161 93.3029C192.165 93.28 192.164 93.2565 192.159 93.2338C192.146 93.1874 192.116 93.1476 192.075 93.1228C192.034 93.0981 191.985 93.0903 191.938 93.1011C191.182 93.3093 190.389 93.3377 189.62 93.1841C188.852 93.0304 188.13 92.6989 187.513 92.2162C187.477 92.18 187.427 92.1597 187.376 92.1597C187.325 92.1597 187.275 92.18 187.239 92.2162C187.221 92.2335 187.207 92.2541 187.198 92.2769C187.188 92.2997 187.183 92.3242 187.183 92.3489C187.183 92.3737 187.188 92.3981 187.198 92.4209C187.207 92.4437 187.221 92.4644 187.239 92.4817C187.782 92.919 188.407 93.2449 189.077 93.4408C189.746 93.6367 190.448 93.6987 191.141 93.6232Z" fill="#414681"/>
<path d="M171.541 71.4209C170.566 72.0517 169.756 72.9073 169.18 73.9159C168.604 74.9245 168.279 76.0566 168.231 77.2171C168.191 77.6609 168.261 78.1077 168.435 78.5179C168.522 78.7209 168.661 78.8973 168.838 79.0294C169.015 79.1614 169.224 79.2445 169.444 79.2701C170.116 79.2701 170.612 78.6684 170.983 78.102L172.7 75.4473C173.407 74.5849 174.002 73.6364 174.47 72.6244C175.045 70.8811 172.594 70.7484 171.541 71.4209Z" fill="#7F66FF"/>
<path d="M172.381 73.1819C167.682 78.6153 165.576 93.6499 179.345 97.8444C181.646 96.0215 177.929 92.7031 176.354 88.5086C175.319 85.7654 180.566 80.6417 182.61 78.5356C184.654 76.4295 186.539 73.3943 189.424 73.881C190.156 74.1258 190.945 74.1474 191.69 73.9429C193.981 72.9076 192.866 71.536 191.69 70.5803C189.885 69.2443 187.735 68.4522 185.495 68.2972C183.078 68.0125 180.629 68.307 178.348 69.1564C176.068 70.0058 174.022 71.3856 172.381 73.1819Z" fill="#414681"/>
<path d="M187.664 71.3588C193.194 75.9692 185.894 76.0842 182.027 79.0044C178.319 81.8096 180.921 86.4023 174.647 88.5349C169.523 90.0304 168.337 89.1278 166.921 88.1367C168.676 87.8331 170.281 86.9576 171.486 85.6468C172.691 84.3359 173.429 82.6632 173.585 80.8893C174.018 77.5266 181.345 66.0139 187.664 71.3588Z" fill="#414681"/>
<path d="M173.284 92.6588C174.151 93.907 175.472 94.765 176.965 95.0481C178.948 95.3932 179.709 93.5791 179.027 91.8093C178.381 90.2165 176.585 88.1192 174.665 88.5705C174.004 88.7414 173.439 89.1671 173.092 89.7544C172.745 90.3417 172.646 91.0425 172.815 91.7031C172.905 92.0501 173.065 92.3752 173.284 92.6588Z" fill="#FFB573"/>
<path d="M186.717 71.828C187.788 74.5535 190.876 74.1907 193.159 77.0401C194.566 78.8099 197.327 73.35 193.566 71.1997C189.805 69.0494 185.036 67.5627 186.717 71.828Z" fill="#414681"/>
<path d="M183.46 83.3319C183.539 83.3403 183.618 83.3234 183.686 83.2836C183.755 83.2438 183.809 83.1832 183.84 83.1106C184.566 81.5001 186.743 81.093 186.761 81.093C186.858 81.0717 186.943 81.014 186.999 80.9317C187.055 80.8494 187.077 80.7488 187.062 80.6506C187.042 80.5546 186.986 80.4701 186.905 80.4154C186.824 80.3608 186.724 80.3403 186.628 80.3586C186.513 80.3586 184.035 80.8806 183.15 82.8275C183.111 82.918 183.108 83.0204 183.143 83.1128C183.178 83.2053 183.247 83.2807 183.336 83.323H183.46V83.3319Z" fill="#414681"/>
<path d="M194.965 80.0753C195.029 80.08 195.094 80.0668 195.152 80.0372C195.21 80.0075 195.258 79.9626 195.292 79.9072C195.32 79.8674 195.34 79.8223 195.35 79.7747C195.361 79.727 195.362 79.6778 195.352 79.6299C195.343 79.582 195.325 79.5364 195.298 79.4959C195.27 79.4553 195.236 79.4207 195.195 79.394C194.705 79.0544 194.14 78.8378 193.549 78.7623C192.957 78.6868 192.356 78.7548 191.797 78.9603C191.75 78.9785 191.708 79.0062 191.672 79.0415C191.637 79.0768 191.609 79.1191 191.591 79.1656C191.573 79.2121 191.564 79.2619 191.566 79.3119C191.568 79.3618 191.58 79.4109 191.602 79.4559C191.641 79.5461 191.714 79.6172 191.805 79.6537C191.896 79.6901 191.998 79.689 192.089 79.6506C192.529 79.4968 192.999 79.4503 193.461 79.5149C193.923 79.5795 194.362 79.7535 194.743 80.0222C194.812 80.0557 194.888 80.0738 194.965 80.0753Z" fill="#414681"/>
<path d="M231.343 128.515L226.158 131.462L220.769 143.054C220.769 143.054 225.972 146.364 230.078 143.683C234.184 141.001 231.343 128.515 231.343 128.515Z" fill="#7F66FF"/>
<path opacity="0.5" d="M231.343 128.515L226.158 131.462L220.769 143.054C220.769 143.054 225.972 146.364 230.078 143.683C234.184 141.001 231.343 128.515 231.343 128.515Z" fill="#EAE5FF"/>
<path d="M140.666 132.099L146.798 133.869L152.612 145.895C152.612 145.895 147.94 150.222 142.878 146.09C139.09 142.957 140.666 132.099 140.666 132.099Z" fill="#7F66FF"/>
<g opacity="0.5">
<path d="M140.666 132.099L146.798 133.869L152.612 145.895C152.612 145.895 147.94 150.222 142.878 146.09C139.09 142.957 140.666 132.099 140.666 132.099Z" fill="#EAE5FF"/>
</g>
<path d="M194.61 83.0751C195.035 82.9954 195.495 83.4733 195.593 84.1281C195.69 84.783 195.451 85.3847 195.026 85.4555C194.602 85.5263 194.141 85.0573 194.044 84.4025C193.947 83.7476 194.186 83.137 194.61 83.0751Z" fill="#414681"/>
<path d="M195.92 82.4292L194.424 83.1637C195.327 83.8008 195.92 82.4292 195.92 82.4292Z" fill="#414681"/>
<path d="M187.221 84.5971C187.646 84.5174 188.106 84.9953 188.203 85.6501C188.3 86.3049 188.062 86.9067 187.637 86.9775C187.212 87.0483 186.752 86.5793 186.655 85.9244C186.557 85.2696 186.778 84.6767 187.221 84.5971Z" fill="#414681"/>
<path d="M188.514 83.9512L187.018 84.6856C187.921 85.3228 188.514 83.9512 188.514 83.9512Z" fill="#414681"/>
<path d="M149.754 118.454C148.921 118.459 148.095 118.302 147.321 117.994C144.578 116.87 143.303 114.02 143.781 110.162C143.797 110.046 143.857 109.941 143.95 109.87C144.043 109.798 144.16 109.767 144.277 109.782C144.335 109.788 144.391 109.806 144.441 109.835C144.492 109.864 144.537 109.902 144.572 109.949C144.608 109.995 144.634 110.048 144.648 110.104C144.663 110.161 144.666 110.22 144.657 110.277C144.197 113.702 145.277 116.215 147.622 117.171C148.983 117.637 150.456 117.66 151.831 117.237C153.206 116.814 154.412 115.967 155.276 114.817C157.497 111.861 156.772 107.667 153.312 103.313C144.25 91.9419 144.852 85.8979 146.135 81.1194C147.993 74.1817 153.435 66.2352 168.833 67.7661C168.95 67.7778 169.058 67.8357 169.133 67.927C169.208 68.0182 169.243 68.1354 169.231 68.2528C169.219 68.3701 169.162 68.478 169.07 68.5527C168.979 68.6274 168.862 68.6628 168.744 68.651C153.975 67.1821 148.754 74.7569 146.984 81.3583C145.71 86.1369 145.215 91.7207 154.002 102.773C159.311 109.437 157.161 113.799 155.984 115.357C155.248 116.311 154.304 117.085 153.225 117.621C152.146 118.158 150.959 118.443 149.754 118.454Z" fill="#414681"/>
</svg>
