<svg width="24" height="25" viewBox="0 0 24 25" fill="none" xmlns="http://www.w3.org/2000/svg">
<path fill-rule="evenodd" clip-rule="evenodd" d="M19.5801 17.21L19.8201 18.35C20.0475 19.3356 19.823 20.3713 19.2077 21.1741C18.5925 21.977 17.6509 22.4632 16.6401 22.5H7.36009C6.34927 22.4632 5.40766 21.977 4.79244 21.1741C4.17722 20.3713 3.95266 19.3356 4.18009 18.35L4.42009 17.21C4.69613 15.6668 6.02272 14.5327 7.59009 14.5H16.4101C17.9775 14.5327 19.3041 15.6668 19.5801 17.21ZM16.6401 20.99C17.1479 20.9841 17.6258 20.7488 17.9401 20.35V20.36C18.3258 19.8762 18.4761 19.2458 18.3501 18.64L18.1101 17.5C17.9769 16.6552 17.2647 16.0226 16.4101 15.99H7.5901C6.73546 16.0226 6.02326 16.6552 5.8901 17.5L5.6501 18.64C5.52725 19.2426 5.67736 19.8686 6.0601 20.35C6.37443 20.7488 6.85231 20.9841 7.3601 20.99H16.6401Z" fill="#7F66FF"/>
<path fill-rule="evenodd" clip-rule="evenodd" d="M12.5 12.5H11.5C9.29088 12.5 7.50001 10.7092 7.50001 8.50001V5.86001C7.49735 4.96807 7.85049 4.11189 8.48119 3.48119C9.11189 2.85049 9.96807 2.49735 10.86 2.50001H13.14C14.032 2.49735 14.8881 2.85049 15.5188 3.48119C16.1495 4.11189 16.5027 4.96807 16.5 5.86001V8.50001C16.5 10.7092 14.7092 12.5 12.5 12.5ZM10.86 4.00002C9.83277 4.00002 9.00002 4.83277 9.00002 5.86001V8.50001C9.00002 9.88073 10.1193 11 11.5 11H12.5C13.8807 11 15 9.88073 15 8.50001V5.86001C15 5.36671 14.8041 4.89361 14.4552 4.5448C14.1064 4.19598 13.6333 4.00002 13.14 4.00002H10.86Z" fill="#7F66FF"/>
</svg>
