<svg width="24" height="24" viewBox="0 0 24 24" fill="none" xmlns="http://www.w3.org/2000/svg">
<path d="M23.6408 14.9031C22.0379 21.3317 15.5261 25.2441 9.09602 23.641C2.66858 22.0382 -1.24421 15.5267 0.359461 9.09847C1.96163 2.6691 8.47345 -1.24365 14.9016 0.359098C21.3313 1.96185 25.2437 8.4741 23.6408 14.9031Z" fill="#26A17B"/>
<path d="M13.1346 12.5189V12.517C13.0506 12.5228 12.6169 12.5478 11.6517 12.5478C10.88 12.5478 10.3388 12.5266 10.1473 12.517V12.5189C7.17962 12.39 4.96604 11.8821 4.96604 11.2722C4.96604 10.6643 7.18157 10.1544 10.1473 10.0255V12.013C10.3408 12.0264 10.8976 12.0591 11.6654 12.0591C12.5875 12.0591 13.0486 12.0206 13.1346 12.013V10.0274C16.0964 10.1583 18.3042 10.6662 18.3042 11.2742C18.3042 11.8821 16.0945 12.39 13.1346 12.5209V12.5189ZM13.1346 9.82158V8.04385H17.2667V5.33301H6.01715V8.04385H10.1493V9.82158C6.79082 9.97357 4.2666 10.6277 4.2666 11.4127C4.2666 12.1977 6.79278 12.8518 10.1493 13.0057V18.7044H13.1365V13.0057C16.4891 12.8537 19.0095 12.1996 19.0095 11.4146C19.0095 10.6316 16.4891 9.97549 13.1365 9.8235" fill="white"/>
</svg>
