<svg width="24" height="25" viewBox="0 0 24 25" fill="none" xmlns="http://www.w3.org/2000/svg">
<path fill-rule="evenodd" clip-rule="evenodd" d="M21.7401 15.2396L21.8801 15.9296C22.0326 16.5191 21.9082 17.1459 21.5423 17.6325C21.1764 18.1191 20.6087 18.4125 20.0001 18.4296H16.1901C16.191 20.0482 14.9078 21.3757 13.2901 21.4296H5.00011C4.08464 21.4145 3.22623 20.9821 2.66911 20.2555C2.112 19.5289 1.91719 18.5877 2.14011 17.6996L2.35011 16.6996C2.59429 15.3221 3.78124 14.3113 5.18011 14.2896H13.1201C13.4745 13.8661 13.9979 13.6209 14.5501 13.6196H19.8401C20.7741 13.6494 21.563 14.3221 21.7401 15.2396ZM19.9801 16.9196C20.1021 16.9151 20.2157 16.8565 20.2901 16.7596C20.4209 16.6277 20.4868 16.4447 20.4701 16.2596L20.3301 15.5696C20.303 15.3461 20.1242 15.1714 19.9001 15.1496H14.6101C14.495 15.1504 14.3872 15.2061 14.3201 15.2996C14.0333 15.6299 13.6175 15.8196 13.1801 15.8196H5.2401C4.55552 15.8363 3.98189 16.3424 3.8801 17.0196L3.6701 18.0196C3.56754 18.5121 3.68837 19.0248 4.0001 19.4196C4.2436 19.7267 4.60854 19.9128 5.0001 19.9296H13.2601C14.0649 19.8762 14.6834 19.1959 14.6601 18.3896C14.6764 17.5729 15.3433 16.9195 16.1601 16.9196H19.9801Z" fill="#B3B3B3"/>
<path fill-rule="evenodd" clip-rule="evenodd" d="M13.1006 8.49982C13.1006 10.709 11.3097 12.4998 9.10059 12.4998C6.89145 12.4998 5.10059 10.709 5.10059 8.49982V6.92982C5.10059 5.07415 6.60491 3.56982 8.46059 3.56982H9.77059C11.6145 3.58629 13.1007 5.0858 13.1006 6.92982V8.49982ZM8.46059 5.06982C7.43334 5.06982 6.60059 5.90257 6.60059 6.92982L6.63059 8.49982C6.79018 9.759 7.86134 10.703 9.13059 10.703C10.3998 10.703 11.471 9.759 11.6306 8.49982V6.92982C11.6306 5.90257 10.7978 5.06982 9.77059 5.06982H8.46059Z" fill="#B3B3B3"/>
<path fill-rule="evenodd" clip-rule="evenodd" d="M20.6797 8.74959C20.6797 10.4064 19.3365 11.7496 17.6797 11.7496C16.0228 11.7496 14.6797 10.4064 14.6797 8.74959V7.59959C14.6795 6.2233 15.7836 5.10144 17.1597 5.07959H18.1597C19.5514 5.07959 20.6797 6.20783 20.6797 7.59959V8.74959ZM17.1797 6.59959C16.6274 6.59959 16.1797 7.04731 16.1797 7.59959V8.74959C16.1797 9.57802 16.8513 10.2496 17.6797 10.2496C18.5081 10.2496 19.1797 9.57802 19.1797 8.74959V7.59959C19.1797 7.04731 18.732 6.59959 18.1797 6.59959H17.1797Z" fill="#B3B3B3"/>
</svg>
