<svg width="24" height="25" viewBox="0 0 24 25" fill="none" xmlns="http://www.w3.org/2000/svg">
<path d="M22.4002 12.4999C22.4002 18.391 17.6246 23.1666 11.7336 23.1666C5.84252 23.1666 1.06689 18.391 1.06689 12.4999C1.06689 6.60888 5.84252 1.83325 11.7336 1.83325C17.6246 1.83325 22.4002 6.60888 22.4002 12.4999Z" fill="#0052B5"/>
<path d="M9.06689 7.69992V2.1693C9.50125 2.0575 9.94631 1.97238 10.4002 1.91578C10.837 1.86131 11.282 1.83325 11.7336 1.83325C12.1851 1.83325 12.6301 1.86131 13.0669 1.91578C13.5208 1.97238 13.9659 2.0575 14.4002 2.1693V9.16659L18.9336 4.62977C19.4222 5.07709 20.135 5.96931 20.5336 6.49992L17.0669 9.83325H22.0642C22.176 10.2676 22.2611 10.7127 22.3177 11.1666C22.3722 11.6034 22.4002 12.0484 22.4002 12.4999C22.4002 12.9515 22.3722 13.3965 22.3177 13.8333C22.2611 14.2872 22.176 14.7322 22.0642 15.1666H16.2669L20.2677 18.8999C19.6943 19.6633 19.0209 20.3472 18.2669 20.9322L14.4002 17.0333V22.8305C13.9659 22.9423 13.5208 23.0275 13.0669 23.0841C12.6301 23.1385 12.1851 23.1666 11.7336 23.1666C11.282 23.1666 10.837 23.1385 10.4002 23.0841C9.94631 23.0275 9.50125 22.9423 9.06689 22.8305L9.06689 15.9666L4.66689 20.4901C4.07017 19.9619 3.53305 19.368 3.06689 18.7196L6.93356 15.1666H1.40294C1.29115 14.7322 1.20602 14.2872 1.14942 13.8333C1.09495 13.3965 1.06689 12.9515 1.06689 12.4999C1.06689 12.0484 1.09495 11.6034 1.14942 11.1666C1.20602 10.7127 1.29115 10.2676 1.40294 9.83325H7.0669L3.20023 6.09888C3.79204 5.31118 4.49039 4.60808 5.27387 4.01097L9.06689 7.69992Z" fill="white"/>
<path d="M9.06689 9.83325L4.19887 4.94967C3.94146 5.20655 3.69711 5.47652 3.46689 5.75848L7.73356 9.83325H9.06689Z" fill="#D90026"/>
<path d="M14.4002 9.83325L19.2682 4.94967C19.5257 5.20655 19.77 5.47651 20.0002 5.75848L15.7336 9.83325H14.4002Z" fill="#D90026"/>
<path d="M14.4002 15.2581L19.2683 20.1417C19.5257 19.8848 19.77 19.6149 20.0002 19.3329L15.7336 15.2581H14.4002Z" fill="#D90026"/>
<path d="M9.06689 15.2581L4.19887 20.1417C3.94146 19.8848 3.69711 19.6149 3.46689 19.3329L7.73356 15.2581H9.06689Z" fill="#D90026"/>
<path d="M1.14942 11.1666C1.09495 11.6034 1.06689 12.0484 1.06689 12.4999C1.06689 12.9515 1.09495 13.3965 1.14942 13.8333H10.4002V23.0841C10.837 23.1385 11.282 23.1666 11.7336 23.1666C12.1851 23.1666 12.6301 23.1385 13.0669 23.0841V13.8333H22.3177C22.3722 13.3965 22.4002 12.9515 22.4002 12.4999C22.4002 12.0484 22.3722 11.6034 22.3177 11.1666H13.0669V1.91578C12.545 1.83727 12.2774 1.83325 11.7336 1.83325C11.282 1.83325 10.837 1.86131 10.4002 1.91578V11.1666H1.14942Z" fill="#D90026"/>
</svg>
